<?xml version="1.0" encoding="UTF-8"?>
<svg version="1.1" xmlns="http://www.w3.org/2000/svg" width="434" height="238">
<path d="M0 0 C0.66 0 1.32 0 2 0 C1.43177527 3.79039323 0.38271138 6.35122724 -1.6875 9.5625 C-6.95821093 18.11785688 -11.6591069 25.77320705 -12 36 C-3.05521982 38.88541296 5.83472722 39.66716924 15.16430664 40.35302734 C16.13231201 40.42473145 17.10031738 40.49643555 18.09765625 40.5703125 C18.96914307 40.62977051 19.84062988 40.68922852 20.73852539 40.75048828 C23 41 23 41 26 42 C28.41302778 41.37362691 30.70785468 40.6754717 33.0625 39.875 C34.52540486 39.40167313 35.98897147 38.93038762 37.453125 38.4609375 C38.58717773 38.09500488 38.58717773 38.09500488 39.74414062 37.72167969 C95.98253079 19.73026396 180.06735647 10.62018633 235 38 C238.45402589 39.97150219 241.84326103 42.04251935 245.13134766 44.28051758 C247.06163397 45.59860915 247.06163397 45.59860915 250 47 C253.10412777 46.1295858 254.85322931 44.36144776 257 42 C260.06713244 43.36242426 262.11840293 44.89699705 264.4375 47.3125 C265.04464844 47.93898437 265.65179688 48.56546875 266.27734375 49.2109375 C267.13005859 50.09652344 267.13005859 50.09652344 268 51 C269.2375 52.2065625 269.2375 52.2065625 270.5 53.4375 C271.7375 54.7059375 271.7375 54.7059375 273 56 C273.61488281 56.54914062 274.22976563 57.09828125 274.86328125 57.6640625 C277.92187097 60.64296952 279.87363486 62.60632072 280.26953125 66.97265625 C280.17373396 69.06207287 280.06064783 71.15077357 279.9296875 73.23828125 C280.04228939 77.6610331 281.8912438 78.96189735 285 82 C290.61059763 89.93091258 291.29215266 98.56203544 292 108 C297.28 103.05 302.56 98.1 308 93 C308.99 93.33 309.98 93.66 311 94 C310.51273437 94.64582031 310.02546875 95.29164062 309.5234375 95.95703125 C304.56336752 102.54941517 299.64545577 109.17198251 294.75 115.8125 C293.86513916 117.01193237 293.86513916 117.01193237 292.96240234 118.2355957 C291.82962093 119.77376499 290.70057329 121.31469256 289.57568359 122.85864258 C288.57110092 124.22387261 287.54953931 125.57688126 286.50634766 126.9128418 C283.62622573 130.67688464 282.34035953 133.48020937 281.875 138.1875 C280.81197256 146.81093754 279.42795262 155.40922408 275 163 C274.34 163 273.68 163 273 163 C272.690625 163.79083984 272.690625 163.79083984 272.375 164.59765625 C267.64046387 172.8696441 259.08134858 180.17512034 250.3984375 183.828125 C247.53526754 185.22706798 245.37139795 187.0105368 242.9375 189.0625 C239.25560702 192.12693266 235.93910498 194.17233059 231.50390625 195.92578125 C227.10639906 197.8123873 222.98690345 200.26505196 218.8203125 202.609375 C216 204 216 204 213 204 C214.43024761 200.79452042 216.20433073 198.4645554 218.5625 195.875 C221.07679216 193.13961955 221.07679216 193.13961955 223 190 C214.45379883 194.49037689 208.23419641 200.42734802 201.66015625 207.40039062 C198.04574487 211.18400253 194.99056629 214.08338666 190 216 C189.34 216 188.68 216 188 216 C189.3931403 212.74698204 190.94960155 210.96613784 193.6875 208.75 C201.72060968 201.90376419 207.31915758 193.85326091 213 185 C212.38181396 185.27150879 211.76362793 185.54301758 211.12670898 185.82275391 C182.34041544 198.44864934 152.67845519 210.92990932 121.51171875 216.296875 C118.67194004 216.86546251 116.0243836 217.56982402 113.25390625 218.38671875 C105.86625954 220.43650672 98.34083848 221.53602806 90.77099609 222.67993164 C88.29484051 223.05569532 85.82130824 223.44602741 83.34765625 223.83789062 C62.17505274 227.12768224 41.16638637 228.38924329 19.75 228.3125 C18.63381287 228.31001251 17.51762573 228.30752502 16.36761475 228.30496216 C-21.62659114 228.1742427 -66.18038103 225.08573637 -97 200 C-97 199.34 -97 198.68 -97 198 C-97.66 198 -98.32 198 -99 198 C-99 197.34 -99 196.68 -99 196 C-99.99 195.67 -100.98 195.34 -102 195 C-110.01487551 185.65538378 -113.89938263 175.32683254 -113 163 C-111.08559602 146.44356119 -104.18093377 130.40298384 -97.02880859 115.48144531 C-95.98281098 112.95854076 -95.32945707 110.71053317 -95 108 C-96.21395805 106.05946007 -96.21395805 106.05946007 -98.125 104.5 C-98.7746875 103.90574219 -99.424375 103.31148438 -100.09375 102.69921875 C-100.7228125 102.13847656 -101.351875 101.57773438 -102 101 C-103.299375 99.6696875 -103.299375 99.6696875 -104.625 98.3125 C-106.95263455 95.96197698 -106.95263455 95.96197698 -109.5625 94 C-112.18363171 91.84932782 -114.15016834 89.84589487 -116 87 C-115.63269392 83.69009965 -114.39499294 82.01111268 -112.0859375 79.6875 C-111.48910156 79.08679688 -110.89226562 78.48609375 -110.27734375 77.8671875 C-109.64957031 77.25101562 -109.02179688 76.63484375 -108.375 76 C-107.77042969 75.38382812 -107.16585937 74.76765625 -106.54296875 74.1328125 C-99.20686643 66.84363621 -92.83342439 64.42782049 -82.8125 62.625 C-73.75703989 60.8974647 -65.0479833 58.72266054 -56.33325195 55.70361328 C-50.6369349 53.82708043 -50.6369349 53.82708043 -47.13671875 54.77734375 C-46.43160156 55.18082031 -45.72648437 55.58429687 -45 56 C-43.515 56.495 -43.515 56.495 -42 57 C-40.39585785 55.81476003 -40.39585785 55.81476003 -39 54 C-38.74930087 51.37429296 -38.74930087 51.37429296 -39 49 C-42.52786374 47.44772398 -45.66885 46.62880397 -49.4921875 46.18359375 C-50.52730469 46.05919922 -51.56242187 45.93480469 -52.62890625 45.80664062 C-53.70011719 45.68482422 -54.77132812 45.56300781 -55.875 45.4375 C-57.99745107 45.18666487 -60.11984838 44.93537435 -62.2421875 44.68359375 C-63.23573242 44.56741699 -64.22927734 44.45124023 -65.25292969 44.33154297 C-68.51082437 43.93834878 -71.75470221 43.48540779 -75 43 C-74.505 42.01 -74.505 42.01 -74 41 C-71.76953125 40.63696289 -71.76953125 40.63696289 -68.8125 40.47265625 C-67.72880127 40.4046582 -66.64510254 40.33666016 -65.52856445 40.26660156 C-64.36413818 40.19924805 -63.19971191 40.13189453 -62 40.0625 C-41.19638068 39.71550369 -41.19638068 39.71550369 -24 30 C-23.34 30 -22.68 30 -22 30 C-21.73960938 29.41605469 -21.47921875 28.83210938 -21.2109375 28.23046875 C-19.9193294 25.85140996 -18.49873161 24.26133899 -16.625 22.3125 C-11.87204001 17.12268707 -7.97082067 11.40788588 -4.03759766 5.58911133 C-3.54308105 4.86747803 -3.04856445 4.14584473 -2.5390625 3.40234375 C-2.09771973 2.74741943 -1.65637695 2.09249512 -1.20166016 1.41772461 C-0.60683838 0.71595093 -0.60683838 0.71595093 0 0 Z M80 40 C78.28141465 40.3134042 76.56266874 40.62592948 74.84375 40.9375 C58.27404813 44.01745434 41.87084885 48.30792341 26 54 C29.01096984 59.48902467 31.58327976 62.65776836 37 66 C39.94399126 68.94399126 41.1305626 71.30654133 42.125 75.25 C43.75165554 80.76768953 47.4853742 83.59015532 51.8203125 87.15234375 C54 89 54 89 55 91 C55.66 91 56.32 91 57 91 C57 91.66 57 92.32 57 93 C57.66 93 58.32 93 59 93 C59.495 91.783125 59.99 90.56625 60.5 89.3125 C62.95119762 84.5040531 65.89080787 81.81622445 71 80 C76.49443969 79.33820474 81.61372972 79.81599104 87 81 C86.87496094 80.25878906 86.74992187 79.51757812 86.62109375 78.75390625 C86.23287421 72.00549422 87.31159372 68.41370209 91.67578125 63.31640625 C93.17621422 61.72926773 94.70173946 60.16551843 96.25 58.625 C97.39553345 57.47366577 97.39553345 57.47366577 98.56420898 56.29907227 C102.83439048 52.27203278 102.83439048 52.27203278 105 51 C107.62402344 51.14208984 107.62402344 51.14208984 110 52 C111.38576923 53.62332967 112.72641268 55.28724465 114 57 C114.66 57 115.32 57 116 57 C116.061875 57.763125 116.12375 58.52625 116.1875 59.3125 C117.27723202 62.9169982 118.78005384 63.13958666 122 65 C125.68206309 68.36619984 128.1260625 71.44816096 129.1875 76.375 C129.5896875 78.169375 129.5896875 78.169375 130 80 C131.485 80.495 131.485 80.495 133 81 C132.938125 80.13375 132.87625 79.2675 132.8125 78.375 C133.18203872 71.7233031 136.92935636 67.62582026 141.5625 63.1875 C142.05685547 62.69830078 142.55121094 62.20910156 143.06054688 61.70507812 C146.97107984 57.87921164 149.2622565 56.47458839 154.89453125 56.515625 C158.28472526 57.29555832 159.78769021 59.42135972 161.87109375 62.078125 C163.03359131 64.05718659 163.56811789 65.7561987 164 68 C166.64104304 68.67654152 166.64104304 68.67654152 170 68 C173.1217786 65.65293591 175.71403443 62.8486286 178.375 60 C179.11105469 59.236875 179.84710938 58.47375 180.60546875 57.6875 C182.41789848 55.80445613 184.21486682 53.90888041 186 52 C188.89227357 53.36877144 190.74717701 54.74717701 193 57 C193.66 57 194.32 57 195 57 C195.309375 57.78375 195.61875 58.5675 195.9375 59.375 C197.23990203 62.9998517 197.23990203 62.9998517 200.1875 65.1875 C203.87114407 67.56140396 206.28762357 70.59787837 209 74 C211.52559423 71.48793574 214.0336465 68.96493404 216.5 66.39453125 C217.325 65.54246094 218.15 64.69039062 219 63.8125 C219.825 62.95269531 220.65 62.09289062 221.5 61.20703125 C226.24387797 57.01907648 230.09128481 56.7587156 236.3125 56.875 C237.56675781 56.89304687 238.82101562 56.91109375 240.11328125 56.9296875 C241.54220703 56.96449219 241.54220703 56.96449219 243 57 C242.28642301 53.80202258 242.28642301 53.80202258 239.4375 52.38671875 C190.93427615 28.41069333 132.04811109 29.99361996 80 40 Z M-22 49 C-25.07709054 51.03534438 -27.60608233 53.19659641 -30 56 C-28.38735963 60.62739177 -28.38735963 60.62739177 -25 64 C-21.03748822 63.46980476 -17.53658947 61.45209537 -14 59.6875 C-13.38382813 59.39166016 -12.76765625 59.09582031 -12.1328125 58.79101562 C-9.32044839 57.39388624 -7.14082684 56.15265409 -5 53.83203125 C-2.18654562 51.25486308 0.23984882 51.46284669 4 51 C7.20908587 49.96838373 10.31628526 48.70761559 13.4375 47.4375 C14.26443359 47.10814453 15.09136719 46.77878906 15.94335938 46.43945312 C17.96498093 45.63314164 19.98288449 44.81751877 22 44 C10.12932835 40.04310945 -10.44696011 44.38159159 -22 49 Z M252.0625 60.75 C250.71865234 62.07257813 250.71865234 62.07257813 249.34765625 63.421875 C247.35215848 65.61327022 246.1083549 67.28928059 245 70 C242.0280615 68.87548273 239.66559313 67.77706209 237 66 C233.33595835 65.8448692 229.99631421 66.28389916 227 68.4375 C225.82031543 69.97157334 225.82031543 69.97157334 226 72 C225.4121875 72.2578125 224.824375 72.515625 224.21875 72.78125 C216.13431632 77.22199526 212.96785588 85.74079575 210.3515625 94.0625 C209.30696702 97.81698811 208.92821372 101.29554222 208.75 105.1875 C208.40845094 109.18240413 208.24928324 109.75071676 205.25 112.75 C204.1775 113.4925 203.105 114.235 202 115 C200.21787145 116.92525286 198.6289398 118.93987025 197 121 C199.99531539 121.99843846 201.17255732 122.00732761 204.1875 121.5625 C205.445625 121.376875 206.70375 121.19125 208 121 C208.21914063 121.98097656 208.43828125 122.96195312 208.6640625 123.97265625 C213.18906337 143.89655808 213.18906337 143.89655808 225.1875 159.875 C229.54106223 161.61642489 233.39545689 161.96751903 238 161 C241.16411333 159.11911041 243.47448268 156.65301917 246 154 C247.16595703 152.96939453 247.16595703 152.96939453 248.35546875 151.91796875 C254.23863401 146.59144882 256.97859277 141.64043805 259 134 C259.19464844 133.36191406 259.38929688 132.72382813 259.58984375 132.06640625 C260.14480278 129.27046983 260.09344845 126.59725773 260.0625 123.75 C260.05347656 122.67234375 260.04445313 121.5946875 260.03515625 120.484375 C260.02355469 119.66453125 260.01195312 118.8446875 260 118 C255.75468289 118.79765875 254.5555583 120.53763069 252 124 C251.48824219 124.37769531 250.97648437 124.75539063 250.44921875 125.14453125 C248.11464117 128.13354567 248.19232789 131.65078499 247.875 135.3125 C247.72783091 136.80871905 247.57941536 138.30481609 247.4296875 139.80078125 C247.32672363 140.8693335 247.32672363 140.8693335 247.22167969 141.95947266 C246.92822754 144.66065443 246.48442646 147.32715578 246 150 C244.60307061 149.91174084 243.20739548 149.80355166 241.8125 149.6875 C241.03519531 149.62949219 240.25789063 149.57148438 239.45703125 149.51171875 C235.48688407 148.68486775 232.85949082 147.11155304 230.375 143.8984375 C225.87020778 135.63111995 223.3981099 127.05127322 221 118 C221.99 117.93683594 222.98 117.87367187 224 117.80859375 C231.40754654 117.18035879 237.0646913 116.39331115 242.484375 110.8515625 C244.04846986 108.94078682 245.54247974 106.99311505 247 105 C233.97390046 105.68469117 233.97390046 105.68469117 221 107 C220.55866735 96.53878173 221.77933441 87.17805063 224 77 C232.73418931 79.60493365 237.49064071 84.0056021 241.9375 91.9375 C242.63730211 93.28535037 243.32948612 94.63734276 244 96 C248.17182973 94.03198467 251.54643954 92.00829184 254 88 C254.32041601 85.36897839 254.17548264 82.92616725 254.015625 80.28125 C253.99645707 76.25598524 254.65165029 72.56099598 255.4375 68.625 C255.57244873 67.94711426 255.70739746 67.26922852 255.84643555 66.57080078 C256.22360724 64.7123604 256.61146745 62.85609849 257 61 C257.33459491 59.33358614 257.66852354 57.66703697 258 56 C255.8014326 56 253.46383922 59.35871343 252.0625 60.75 Z M17.08984375 65.6796875 C16.37957031 66.40414062 15.66929687 67.12859375 14.9375 67.875 C14.22464844 68.59429687 13.51179687 69.31359375 12.77734375 70.0546875 C10.59406023 72.44430331 10.0546816 73.51880196 9.6875 76.75 C10.07636866 80.79423405 11.65831934 82.73583908 14 86 C14.8203125 87.99316406 14.8203125 87.99316406 15 90 C13.71484375 91.49121094 13.71484375 91.49121094 11.9375 92.984375 C9.73256478 95.38071084 9.01304397 96.4305491 8.9375 99.72851562 C9.46926792 102.95859027 10.18213921 106.08031832 11 109.25 C11.50074499 111.40086836 12.0007506 113.551909 12.5 115.703125 C12.75418701 116.75121338 13.00837402 117.79930176 13.27026367 118.87915039 C17.66435691 137.67128618 17.66435691 137.67128618 15 143 C15.66 143.33 16.32 143.66 17 144 C17.59423828 145.94946289 17.59423828 145.94946289 18.0703125 148.47265625 C18.24433594 149.37177734 18.41835937 150.27089844 18.59765625 151.19726562 C18.77167969 152.14279297 18.94570312 153.08832031 19.125 154.0625 C19.30675781 155.01189453 19.48851562 155.96128906 19.67578125 156.93945312 C20.12493737 159.2916128 20.56596193 161.64501178 21 164 C25.42800235 161.72274165 28.25553568 159.1706056 31 155 C31.23060686 152.06264511 31.26547124 149.69286296 31 146.8125 C30.75044944 144.05995735 30.75633417 141.7930196 31 139 C33.8375164 136.56031107 35.25760401 136 39 136 C39.08975098 136.54301758 39.17950195 137.08603516 39.27197266 137.64550781 C41.14439972 148.66554552 43.11293134 158.3452074 49 168 C53.09563457 168.44727555 53.09563457 168.44727555 55.625 165.625 C56.40875 164.75875 57.1925 163.8925 58 163 C58.66 162.34 59.32 161.68 60 161 C59.5438727 157.43900619 57.89498737 154.12197161 56.5625 150.8125 C53.22817716 142.20283641 51.72820925 134.17926925 51 125 C47.01803543 123.94595055 44.01804691 124.15901344 40 125 C41.10281127 123.72799029 42.20730769 122.45744147 43.3125 121.1875 C43.92738281 120.47980469 44.54226562 119.77210937 45.17578125 119.04296875 C47 117 47 117 48.66796875 115.42578125 C51.53920914 112.35245942 51.41012704 108.36812604 51.3203125 104.390625 C50.06614946 95.0302862 40.98057006 89.33971893 34 84 C32.69474712 83.09363995 31.38379985 82.19530254 30.0625 81.3125 C25.91844926 78.18331883 22.69757879 74.94533267 21.47265625 69.7734375 C21.2256615 67.85838233 21.10148678 65.92824873 21 64 C18.82638094 63.77988303 18.82638094 63.77988303 17.08984375 65.6796875 Z M98.6875 70.25 C96.45924781 73.88122579 96.09524658 76.90991637 97 81 C98.41275152 83.86949877 100.09168264 86.4374024 102 89 C101.54367188 89.34289062 101.08734375 89.68578125 100.6171875 90.0390625 C98.54476843 91.92561439 97.26836675 93.48765817 96 96 C95.84565352 100.79760298 96.94891534 105.34473638 98 110 C98.33937486 111.59329668 98.67652063 113.18706939 99.01171875 114.78125 C99.53506925 117.26124271 100.06047088 119.7406122 100.59594727 122.21801758 C103.76190907 136.98798966 103.76190907 136.98798966 102 143 C102.66 143 103.32 143 104 143 C104.13277344 144.26457031 104.26554688 145.52914062 104.40234375 146.83203125 C104.58055463 148.49220625 104.75894963 150.15236148 104.9375 151.8125 C105.06801758 153.06256836 105.06801758 153.06256836 105.20117188 154.33789062 C105.28818359 155.14033203 105.37519531 155.94277344 105.46484375 156.76953125 C105.58267212 157.87711792 105.58267212 157.87711792 105.70288086 159.00708008 C105.97151996 161.20269378 105.97151996 161.20269378 107 164 C111.94646903 161.75160498 115.54138727 158.92433128 118 154 C118.30075226 148.87165545 117.78470176 144.06429372 117 139 C119.97180943 137.10134397 122.51460083 135.64544429 126 135 C126.14695313 136.39798828 126.14695313 136.39798828 126.296875 137.82421875 C127.57237504 148.69895614 128.95610515 160.19513144 136 169 C139.62613199 168.43040847 141.25517741 167.07625466 143.75 164.4375 C144.36359375 163.79683594 144.9771875 163.15617187 145.609375 162.49609375 C146.06828125 162.00238281 146.5271875 161.50867188 147 161 C146.03510478 158.56194535 145.05925128 156.13551905 144.00878906 153.73291016 C141.28725118 147.37864103 139.85852399 141.18061042 138.75 134.375 C138.57726562 133.37082031 138.40453125 132.36664063 138.2265625 131.33203125 C137.80784461 128.88951024 137.39917943 126.44577621 137 124 C131.24405841 124.70000639 131.24405841 124.70000639 126 127 C127.8100417 123.59286269 129.91269446 121.0102141 132.5625 118.25 C136.19506825 114.14697174 137.93212727 110.52677925 138 105 C136.44838162 94.69418902 126.80464344 88.87134874 119.06323242 83.08276367 C109.85298454 76.08205464 109.85298454 76.08205464 108.29296875 70.4453125 C108.25816406 69.67960937 108.22335938 68.91390625 108.1875 68.125 C108.13980469 67.34382813 108.09210938 66.56265625 108.04296875 65.7578125 C108.02878906 65.17773438 108.01460937 64.59765625 108 64 C104.06198097 64 101.3672866 67.64264007 98.6875 70.25 Z M181.484375 68.16796875 C175.94551302 73.79358135 176.0166529 79.1029208 176.01501465 86.59030151 C176.04700429 88.52022692 176.09439707 90.44995117 176.15625 92.37915039 C176.24856677 95.26765572 176.27907776 98.15118929 176.296875 101.04101562 C176.4476216 112.90672702 177.63741974 124.39412345 179.73651123 136.06999207 C180 138 180 138 180 142 C177.515625 144.10546875 177.515625 144.10546875 174.25 146.1875 C173.18265625 146.88230469 172.1153125 147.57710938 171.015625 148.29296875 C168.48953606 149.72289215 166.76292982 150.400124 164 151 C163.9906543 150.31413818 163.98130859 149.62827637 163.97167969 148.92163086 C163.5689233 125.0109317 161.1465659 101.58460639 156.375 78.125 C156.16907227 77.10825195 155.96314453 76.09150391 155.75097656 75.04394531 C155.55213867 74.12452148 155.35330078 73.20509766 155.1484375 72.2578125 C154.97489746 71.4548877 154.80135742 70.65196289 154.62255859 69.82470703 C154.16706743 67.79098966 154.16706743 67.79098966 152 67 C151.2575 67.7425 150.515 68.485 149.75 69.25 C147 72 147 72 144.625 73.75 C142.43716913 76.77930428 143.10686526 78.87170258 143.57714844 82.44287109 C143.98748019 84.92428839 144.49113572 87.35683666 145.05078125 89.80859375 C149.15008252 107.84159345 150.3858264 125.93759555 151.56762695 144.36108398 C151.641884 145.44199814 151.71614105 146.52291229 151.79264832 147.63658142 C151.93349367 149.69506508 152.06239285 151.75440943 152.17793274 153.81446838 C152.24183701 154.73227585 152.30574127 155.65008331 152.37158203 156.59570312 C152.42089874 157.40108521 152.47021545 158.20646729 152.52102661 159.03625488 C152.86209025 161.39693975 152.86209025 161.39693975 156 163 C157.02738281 162.32453125 158.05476563 161.6490625 159.11328125 160.953125 C166.81301773 155.96951897 174.09083788 151.52929603 183 149 C183.17015625 149.56847656 183.3403125 150.13695312 183.515625 150.72265625 C185.15067737 155.9322114 187.13309172 160.35363141 190 165 C191.1055189 164.06409496 192.20935453 163.12620142 193.3125 162.1875 C193.92738281 161.66542969 194.54226563 161.14335937 195.17578125 160.60546875 C196.85424679 159.12827531 198.43882034 157.59960869 200 156 C199.56661254 154.64451156 199.12802005 153.29068724 198.6875 151.9375 C198.44386719 151.18339844 198.20023437 150.42929688 197.94921875 149.65234375 C197.0012664 146.87616986 197.0012664 146.87616986 195.5234375 143.82421875 C193.57484901 139.32556575 192.77077744 134.68561243 191.9375 129.875 C191.76758545 128.9041748 191.5976709 127.93334961 191.42260742 126.93310547 C187.95470938 106.39875385 187.47905181 85.77254332 187 65 C184.81545853 65 183.099287 66.89690242 181.484375 68.16796875 Z M-61.5 68.25 C-66.75808871 69.71826373 -71.94487578 71.0539913 -77.34765625 71.87109375 C-87.55656201 73.4405282 -93.64746296 74.75869718 -100.515625 82.953125 C-101.00546875 83.62859375 -101.4953125 84.3040625 -102 85 C-98.55891153 86.152916 -96.16057199 85.8357399 -92.640625 85.07421875 C-91.60679688 84.85443359 -90.57296875 84.63464844 -89.5078125 84.40820312 C-88.43273437 84.17037109 -87.35765625 83.93253906 -86.25 83.6875 C-84.66058594 83.3481543 -84.66058594 83.3481543 -83.0390625 83.00195312 C-77.33039976 81.77310327 -71.65518929 80.45477695 -66 79 C-66 82.93177607 -67.80855405 85.05104429 -69.9375 88.1875 C-81.01615873 105.00991573 -90.3192756 122.8742159 -97.0625 141.875 C-97.36172363 142.71321289 -97.66094727 143.55142578 -97.96923828 144.41503906 C-99.32185001 148.3765482 -100.40416342 151.75198452 -100 156 C-96.5692689 157.06014452 -93.49175769 157.07338876 -89.9140625 156.9921875 C-88.73585938 156.97542969 -87.55765625 156.95867187 -86.34375 156.94140625 C-83.87224109 156.89727216 -81.40086016 156.84523761 -78.9296875 156.78515625 C-77.15851563 156.76388672 -77.15851563 156.76388672 -75.3515625 156.7421875 C-73.74015381 156.70907471 -73.74015381 156.70907471 -72.09619141 156.67529297 C-68.51527923 157.05083415 -66.10767084 158.22843525 -63 160 C-57.63067778 156.35291321 -54.0999016 152.60448503 -52.76953125 146.16015625 C-52.07930291 141.86628012 -51.61028857 137.55561916 -51.21875 133.22509766 C-50.94668868 130.45772395 -50.5012266 127.73437012 -50 125 C-51.73982751 126.46614678 -53.47005718 127.94121904 -55.1875 129.43359375 C-56.52013619 130.58529012 -57.87834845 131.70755847 -59.25 132.8125 C-61.95265708 136.19082135 -62.78388708 139.86521609 -64 144 C-69.61 144 -75.22 144 -81 144 C-80.24078804 138.68551626 -79.28400074 134.45209213 -77.375 129.5625 C-77.10993652 128.87220703 -76.84487305 128.18191406 -76.57177734 127.47070312 C-70.75050998 112.49494126 -63.88375013 98.05312328 -56.26953125 83.91015625 C-55.80973877 83.05204346 -55.34994629 82.19393066 -54.8762207 81.30981445 C-53.97501941 79.63355127 -53.06626893 77.96131967 -52.14916992 76.29370117 C-51.73900635 75.53162354 -51.32884277 74.7695459 -50.90625 73.984375 C-50.35420898 72.97455566 -50.35420898 72.97455566 -49.79101562 71.94433594 C-48.74877418 69.73232785 -48.74877418 69.73232785 -49 66 C-53.46781399 66 -57.24459046 67.05358404 -61.5 68.25 Z M-5.7890625 67.4609375 C-6.69785156 68.40839844 -6.69785156 68.40839844 -7.625 69.375 C-8.54152344 70.31472656 -8.54152344 70.31472656 -9.4765625 71.2734375 C-12.48115038 74.6786371 -12.14161742 77.36631116 -12.16796875 81.82421875 C-12.17411697 82.85927299 -12.17411697 82.85927299 -12.1803894 83.91523743 C-12.19000875 86.17270799 -12.18990778 88.43001178 -12.1875 90.6875 C-12.18789276 91.45376709 -12.18828552 92.22003418 -12.18869019 93.00952148 C-12.18164461 104.46592691 -11.73109774 115.78574937 -10.53515625 127.1875 C-10.45434814 127.97850098 -10.37354004 128.76950195 -10.2902832 129.58447266 C-10.08547856 131.28870909 -9.82605304 132.9868093 -9.52807617 134.67724609 C-9.13166364 137.19440789 -8.83994065 139.45623027 -9 142 C-11.16796875 144.7265625 -11.16796875 144.7265625 -14.1875 146.625 C-15.66283203 147.60339844 -15.66283203 147.60339844 -17.16796875 148.6015625 C-20 150 -20 150 -24 150 C-24.06731323 148.77990234 -24.06731323 148.77990234 -24.13598633 147.53515625 C-25.6556979 120.61563265 -28.80466127 94.49160261 -34 68 C-37.86226699 67.59806454 -37.86226699 67.59806454 -39.88671875 69.42578125 C-40.48097656 70.04839844 -41.07523437 70.67101562 -41.6875 71.3125 C-42.28949219 71.92738281 -42.89148438 72.54226562 -43.51171875 73.17578125 C-45.20909105 75.03613004 -45.20909105 75.03613004 -46 78 C-45.50999199 81.03023359 -44.94330904 83.99881106 -44.3125 87 C-40.18663873 107.87562642 -37.56427615 128.50447697 -36.59521484 149.75048828 C-36.56093887 150.48421158 -36.5266629 151.21793488 -36.49134827 151.97389221 C-36.39996203 153.97852744 -36.31655012 155.98352161 -36.23364258 157.98852539 C-36.19630934 160.9212882 -36.19630934 160.9212882 -35 163 C-31.12937806 162.37923988 -28.65464185 160.50573852 -25.5 158.25 C-19.57441105 154.19257702 -13.70118056 151.55283069 -7 149 C-4.69 153.62 -2.38 158.24 0 163 C4.09464389 163.37722833 4.09464389 163.37722833 7.1875 160.8125 C10.01306797 158.29304477 10.01306797 158.29304477 11.125 155.6875 C10.97487758 152.45986786 9.70908467 150.47592835 8.18359375 147.68359375 C-0.46200562 128.08119517 -0.04978673 104.19618771 -0.5625 83.1875 C-0.60581834 81.51236197 -0.6494362 79.83723166 -0.69335938 78.16210938 C-0.79901768 74.10815339 -0.90065165 70.05411533 -1 66 C-3.99768344 65.68374962 -3.99768344 65.68374962 -5.7890625 67.4609375 Z M277 80 C275.29018274 85.83349419 275.0236999 90.07322216 275.8125 96.125 C276.43541371 102.34743909 276.43541371 102.34743909 274.48046875 105.27734375 C273.20282951 106.42898306 271.8926446 107.5459549 270.546875 108.6171875 C268.69664987 109.95548804 268.69664987 109.95548804 268.75 112.6875 C270.33540779 115.62050441 272.28001728 117.11693504 275 119 C280.93751551 108.34873172 283.14840566 99.15724792 281 87 C280.18988654 84.47159325 279.2347697 82.36216812 278 80 C277.67 80 277.34 80 277 80 Z M70 92 C68.43081508 93.56918492 68.71741057 95.14085159 68.625 97.3125 C68.67601203 100.8663378 68.78391211 101.72497905 71.0625 104.625 C74.88849719 106.4158923 76.96631907 106.12046692 81 105 C83.15039364 103.37227148 83.90410937 102.51893752 84.3984375 99.84375 C84.39070312 99.0703125 84.38296875 98.296875 84.375 97.5 C84.38273438 96.7265625 84.39046875 95.953125 84.3984375 95.15625 C83.90631824 92.49301635 83.12570206 91.63438413 81 90 C76.22217818 88.54588032 73.98366272 89.04070769 70 92 Z M72 119 C71.26964386 127.0338618 70.76630588 135.04861669 70.46484375 143.109375 C70.42186661 144.20219788 70.37888947 145.29502075 70.33460999 146.42095947 C70.19977148 149.86388221 70.06857024 153.30693197 69.9375 156.75 C69.84594511 159.10417609 69.75415038 161.45834287 69.66210938 163.8125 C69.43863733 169.54156206 69.21814007 175.27073257 69 181 C71.31243792 181.02685412 73.6249627 181.04632841 75.9375 181.0625 C77.22527344 181.07410156 78.51304687 181.08570313 79.83984375 181.09765625 C82.86298403 181.36532549 82.86298403 181.36532549 84 180 C84.03464926 178.09579374 83.99637344 176.1902274 83.92993164 174.28686523 C83.88981461 173.0656749 83.84969757 171.84448456 83.80836487 170.58628845 C83.75907135 169.24371953 83.70966581 167.90115472 83.66015625 166.55859375 C83.61343776 165.19240317 83.56717355 163.82619699 83.52134705 162.4599762 C83.39929383 158.85783268 83.27104663 155.25593497 83.14154053 151.65405273 C83.01056538 147.98108477 82.88540481 144.30791929 82.75976562 140.63476562 C82.51222473 133.42297022 82.25814485 126.21142445 82 119 C78.7 119 75.4 119 72 119 Z M-106 165 C-105.50893471 174.33024055 -98.89229145 181.79770407 -92.37890625 187.9140625 C-70.90799122 206.74077617 -39.51835324 211.55673624 -12 214 C-11.2462207 214.07057617 -10.49244141 214.14115234 -9.71582031 214.21386719 C-4.81024454 214.65515887 0.07919917 214.8636952 5 215 C5.9187793 215.03254883 6.83755859 215.06509766 7.78417969 215.09863281 C44.75614351 216.26990463 81.96572291 212.165196 118 204 C118.70350586 203.84063965 119.40701172 203.6812793 120.13183594 203.51708984 C135.21670216 201.32403362 135.21670216 201.32403362 148 195 C147.67 194.34 147.34 193.68 147 193 C146.34 193 145.68 193 145 193 C144.773125 192.46375 144.54625 191.9275 144.3125 191.375 C141.55535743 186.38588487 138.19050431 182.45865994 133 180 C129.79946086 179.66047901 129.79946086 179.66047901 127.5 182.3125 C126.12243266 183.79338489 124.76347748 185.29565315 123.5 186.875 C122 188 122 188 119.66015625 187.8515625 C116.27694654 186.76853795 115.13259776 185.25805524 112.9375 182.5 C109.83073671 178.55929949 109.83073671 178.55929949 105 177 C105.33 185.58 105.66 194.16 106 203 C94.45 203 82.9 203 71 203 C71 199.37 71 195.74 71 192 C67.62007831 192.53771481 64.31262111 193.14303932 61 194 C60.33613281 193.25234375 59.67226562 192.5046875 58.98828125 191.734375 C58.09655851 190.73940016 57.20461989 189.74461877 56.3125 188.75 C55.44238281 187.77546875 54.57226562 186.8009375 53.67578125 185.796875 C51.25206689 183.26347429 48.7912151 181.11227089 46 179 C41.93347371 180.7568107 39.66797922 183.36290539 36.78125 186.63671875 C35 188 35 188 32.984375 187.8984375 C30.72689043 186.87634803 29.43915144 185.74182086 27.75 183.9375 C26.96882813 183.11572266 26.96882813 183.11572266 26.171875 182.27734375 C25.78515625 181.85582031 25.3984375 181.43429688 25 181 C22.81214737 181.98076152 21.24487239 182.70848526 19.6875 184.5625 C16.90936447 186.92905989 14.57749432 187 11 187 C8.46759248 185.01025123 6.69648834 182.91770004 4.7578125 180.36328125 C2.23509732 177.12535071 2.23509732 177.12535071 -1.23046875 175.05078125 C-5.85845697 174.96592392 -9.00689677 178.08279435 -12.56445312 180.75195312 C-17.24152289 184.04399008 -20.27824965 184.64774532 -26 184 C-29.01207654 181.6572738 -30.67901969 179.58846391 -32.5 176.25 C-33.8128947 173.84081952 -33.8128947 173.84081952 -36.2421875 173.0234375 C-39.24340231 172.70448713 -39.24340231 172.70448713 -41.7890625 175.2734375 C-42.75000522 176.29278006 -43.69493925 177.3274041 -44.625 178.375 C-49.67844418 183.89281473 -49.67844418 183.89281473 -53 185 C-53.67095703 184.25943359 -53.67095703 184.25943359 -54.35546875 183.50390625 C-54.96003906 182.86324219 -55.56460938 182.22257812 -56.1875 181.5625 C-56.77917969 180.92441406 -57.37085938 180.28632813 -57.98046875 179.62890625 C-61.80471781 176.5443572 -66.03467716 176.91379757 -70.74609375 177.26171875 C-71.83083984 177.32810547 -72.91558594 177.39449219 -74.03320312 177.46289062 C-76.29964626 177.61242646 -78.56533644 177.77385708 -80.83007812 177.94726562 C-90.09726062 178.48074735 -90.09726062 178.48074735 -93.6953125 176.24609375 C-96 174 -96 174 -97.4375 170.375 C-98.69960044 166.6265441 -98.69960044 166.6265441 -102.6875 165.5625 C-103.780625 165.376875 -104.87375 165.19125 -106 165 Z M178.3125 179.4375 C172.96765283 183.2007373 169.88705586 184.54778359 163.2578125 183.79296875 C159.21975312 184.16324063 157.14588651 187.13646584 154.59375 190.0546875 C154.0678125 190.69664062 153.541875 191.33859375 153 192 C152.34 192.66 151.68 193.32 151 194 C158.3411709 192.77032647 165.10130799 190.73484063 172.0625 188.125 C172.99126953 187.78597656 173.92003906 187.44695312 174.87695312 187.09765625 C180.69116398 184.95149842 186.37138728 182.59355094 192 180 C190.65967036 176.78893217 190.65967036 176.78893217 187.79296875 174.97265625 C183.76967546 175.01204514 181.41373769 177.12456098 178.3125 179.4375 Z M223.9375 178.375 C223.20402344 178.81585938 222.47054688 179.25671875 221.71484375 179.7109375 C220.86599609 180.34902344 220.86599609 180.34902344 220 181 C220 181.66 220 182.32 220 183 C223.95820859 182.43454163 226.6659053 181.19097652 230 179 C229.67 178.01 229.34 177.02 229 176 C227.10268276 176 225.50985881 177.41550062 223.9375 178.375 Z M237 183 C236.34 184.32 235.68 185.64 235 187 C238.68754757 186.50168276 240.60490662 185.89932357 243 183 C241.02 183 239.04 183 237 183 Z " fill="#151515" transform="translate(118,3)"/>
<path d="M0 0 C0.33 0 0.66 0 1 0 C0.94199219 0.79664062 0.88398438 1.59328125 0.82421875 2.4140625 C0.26526015 9.36849325 0.26526015 9.36849325 3.25 15.3125 C4.1575 16.199375 5.065 17.08625 6 18 C11.61059763 25.93091258 12.29215266 34.56203544 13 44 C18.28 39.05 23.56 34.1 29 29 C29.99 29.33 30.98 29.66 32 30 C31.51273437 30.64582031 31.02546875 31.29164062 30.5234375 31.95703125 C25.56336752 38.54941517 20.64545577 45.17198251 15.75 51.8125 C15.16009277 52.61212158 14.57018555 53.41174316 13.96240234 54.2355957 C12.82962093 55.77376499 11.70057329 57.31469256 10.57568359 58.85864258 C9.57110092 60.22387261 8.54953931 61.57688126 7.50634766 62.9128418 C4.62622573 66.67688464 3.34035953 69.48020937 2.875 74.1875 C1.81197256 82.81093754 0.42795262 91.40922408 -4 99 C-4.66 98.67 -5.32 98.34 -6 98 C-5.28385417 96.37239583 -4.56770833 94.74479167 -3.8515625 93.1171875 C-1.41714085 87.0646346 -0.43545358 81.27993991 0.2109375 74.83398438 C0.64294371 70.9124108 1.3247462 67.58085499 3 64 C2.01 64 1.02 64 0 64 C0 63.01 0 62.02 0 61 C-0.763125 60.773125 -1.52625 60.54625 -2.3125 60.3125 C-5.61246514 58.70088912 -6.31972529 57.20779717 -8 54 C-8.556875 53.34 -9.11375 52.68 -9.6875 52 C-11 50 -11 50 -11.5625 47.625 C-11 45 -11 45 -7.9765625 42.515625 C-5.9075767 40.51440944 -5.08078546 39.43946223 -4.55541992 36.58154297 C-4.5176784 33.74348308 -4.62483233 30.95707575 -4.8125 28.125 C-5.20846272 20.88034879 -5.04774025 15.66250194 -2 9 C-1.34 9 -0.68 9 0 9 C0 6.03 0 3.06 0 0 Z M-2 16 C-3.70981726 21.83349419 -3.9763001 26.07322216 -3.1875 32.125 C-2.56458629 38.34743909 -2.56458629 38.34743909 -4.51953125 41.27734375 C-5.79717049 42.42898306 -7.1073554 43.5459549 -8.453125 44.6171875 C-10.30335013 45.95548804 -10.30335013 45.95548804 -10.25 48.6875 C-8.66459221 51.62050441 -6.71998272 53.11693504 -4 55 C1.93751551 44.34873172 4.14840566 35.15724792 2 23 C1.18988654 20.47159325 0.2347697 18.36216812 -1 16 C-1.33 16 -1.66 16 -2 16 Z " fill="#212121" transform="translate(397,67)"/>
<path d="M0 0 C3.55465445 1.55052213 6.16924089 3.68403264 9.0625 6.25 C9.91972656 6.99765625 10.77695313 7.7453125 11.66015625 8.515625 C15.12239367 12.19172349 16.83697677 15.47844988 17.375 20.5 C16.78685398 25.98936284 15.32251923 28.90259043 11.0625 32.4375 C8 34 8 34 5.80859375 33.59765625 C5.21175781 33.40042969 4.61492187 33.20320313 4 33 C3.80664062 31.88882813 3.61328125 30.77765625 3.4140625 29.6328125 C3.1512852 28.13016572 2.88824705 26.62756455 2.625 25.125 C2.42136841 23.96049316 2.42136841 23.96049316 2.21362305 22.77246094 C1.34662782 17.85248091 0.41128419 12.95669927 -0.66796875 8.078125 C-1.05155091 5.67735198 -1.11970552 3.42713264 -1 1 C-0.67 0.67 -0.34 0.34 0 0 Z " fill="#1A1A1A" transform="translate(228,98)"/>
<path d="M0 0 C6.70390499 3.10817413 14.01402261 8.1192695 17 15 C17.76570528 19.18507618 17.93317487 22.83404076 17 27 C14.82052922 30.11499834 12.45102487 32.36894993 9 34 C6.734375 33.66796875 6.734375 33.66796875 5 33 C3.61851368 27.15525018 2.45325435 21.28204206 1.375 15.375 C1.23989014 14.65900635 1.10478027 13.9430127 0.96557617 13.20532227 C0.16384543 8.72955086 -0.13127278 4.54681169 0 0 Z " fill="#262626" transform="translate(141,98)"/>
<path d="M0 0 C0 14.52 0 29.04 0 44 C-0.33 44 -0.66 44 -1 44 C-1.98025083 34.94921781 -2.30511732 25.90493706 -2.5625 16.8125 C-2.60581566 15.36913147 -2.64943346 13.92577197 -2.69335938 12.48242188 C-2.79904858 8.98837827 -2.90067582 5.49423102 -3 2 C-6.63682972 4.11346676 -8.85903264 6.3682977 -11 10 C-12.30321606 15.97653669 -11.93659283 22.22533453 -11.76831055 28.30371094 C-11.68884533 31.20095039 -11.6659234 34.09396583 -11.65429688 36.9921875 C-11.54560178 47.35482224 -10.78376384 57.39998904 -8.94450378 67.60675049 C-7.62815738 75.08526338 -7.62815738 75.08526338 -9 79 C-11.21484375 81.01953125 -11.21484375 81.01953125 -13.9375 82.8125 C-14.83339844 83.41707031 -15.72929687 84.02164063 -16.65234375 84.64453125 C-19 86 -19 86 -21 86 C-19.72995023 82.18985068 -18.48886603 81.82372543 -15 80 C-13.34630643 79.30177383 -11.68272986 78.62501395 -10 78 C-10.30679687 76.92621094 -10.61359375 75.85242188 -10.9296875 74.74609375 C-13.32079318 65.11208858 -13.39024648 54.92169994 -13.89343262 45.04992676 C-13.965977 43.65446533 -14.042381 42.25920041 -14.12219238 40.86413574 C-14.37469155 36.44527699 -14.56624615 32.03030534 -14.68206787 27.60568237 C-14.7268692 26.17576324 -14.78887355 24.74626546 -14.86920166 23.31790161 C-15.20305315 17.12359802 -15.40092698 12.08507831 -11.86132812 6.81689453 C-5.34716737 0 -5.34716737 0 0 0 Z " fill="#919191" transform="translate(307,67)"/>
<path d="M0 0 C3.96 0 7.92 0 12 0 C12.06058594 1.91425781 12.12117187 3.82851562 12.18359375 5.80078125 C12.26799535 8.30469539 12.35264354 10.80860123 12.4375 13.3125 C12.47681641 14.57513672 12.51613281 15.83777344 12.55664062 17.13867188 C12.61948242 18.95141602 12.61948242 18.95141602 12.68359375 20.80078125 C12.72025146 21.91622314 12.75690918 23.03166504 12.79467773 24.1809082 C12.88931209 27.07873571 12.88931209 27.07873571 14 30 C14.09667425 32.57445364 14.1399992 35.1210083 14.1328125 37.6953125 C14.13424759 38.81738602 14.13424759 38.81738602 14.13571167 39.96212769 C14.13639143 41.54067062 14.13455137 43.11921636 14.13037109 44.69775391 C14.1250049 47.12278455 14.13033064 49.54763125 14.13671875 51.97265625 C14.13605823 53.50520874 14.1347776 55.03776112 14.1328125 56.5703125 C14.13483673 57.29944855 14.13686096 58.02858459 14.13894653 58.77981567 C14.1149618 63.8850382 14.1149618 63.8850382 13 65 C10.30345146 65.07319621 7.63308542 65.09242537 4.9375 65.0625 C4.17888672 65.05798828 3.42027344 65.05347656 2.63867188 65.04882812 C0.75908129 65.0370068 -1.12046899 65.01907078 -3 65 C-3.3602529 48.92871783 -2.24576432 33.01767984 -1 17 C-0.67 17 -0.34 17 0 17 C0.09770415 27.67530582 0.15687532 38.33733526 -0.4375 49 C-0.47673584 49.72171387 -0.51597168 50.44342773 -0.55639648 51.18701172 C-0.80489474 55.21735763 -1.33228685 58.99372107 -2 63 C2.62 62.67 7.24 62.34 12 62 C11.9278125 60.02644531 11.855625 58.05289063 11.78125 56.01953125 C11.14166735 37.66886747 10.86473295 19.36302288 11 1 C7.7 1 4.4 1 1 1 C1 4.96 1 8.92 1 13 C0.67 13 0.34 13 0 13 C0 8.71 0 4.42 0 0 Z " fill="#A4A4A4" transform="translate(189,121)"/>
<path d="M0 0 C-3.96 1.98 -3.96 1.98 -8 4 C-7.67 5.32 -7.34 6.64 -7 8 C-4.65466049 8.76956136 -4.65466049 8.76956136 -2 9 C-0.2912354 7.62485459 -0.2912354 7.62485459 1 6 C1.66 6 2.32 6 3 6 C3 5.34 3 4.68 3 4 C3.66 4 4.32 4 5 4 C5.66 2.68 6.32 1.36 7 0 C10.875 0.875 10.875 0.875 12 2 C15.74824364 2.22048492 18.60924916 2.13025028 22.1875 0.9375 C25 0 25 0 29 1 C24.38 2.65 19.76 4.3 15 6 C15.99 6.99 16.98 7.98 18 9 C17.67 9.66 17.34 10.32 17 11 C16.61328125 10.55527344 16.2265625 10.11054687 15.828125 9.65234375 C15.04695313 8.80349609 15.04695313 8.80349609 14.25 7.9375 C13.48429687 7.08478516 13.48429687 7.08478516 12.703125 6.21484375 C11.07232838 4.78126299 11.07232838 4.78126299 8.97265625 5.12890625 C6.73512408 6.11696501 5.74471624 7.13313557 4.1875 9 C1.864314 11.40511195 0.78642644 12.08009009 -2.5 13.3125 C-6.51054261 12.95441584 -6.92106474 12.47564387 -9.4375 9.5625 C-10.31480794 8.39199254 -11.17679837 7.20917163 -12 6 C-13.98 6.66 -15.96 7.32 -18 8 C-18 8.66 -18 9.32 -18 10 C-18.99 10.33 -19.98 10.66 -21 11 C-21.515625 11.515625 -22.03125 12.03125 -22.5625 12.5625 C-23.036875 13.036875 -23.51125 13.51125 -24 14 C-24.66 14 -25.32 14 -26 14 C-26 13.34 -26 12.68 -26 12 C-26.66 12 -27.32 12 -28 12 C-28.33 12.66 -28.66 13.32 -29 14 C-29.66 13.34 -30.32 12.68 -31 12 C-30.18015625 11.61328125 -29.3603125 11.2265625 -28.515625 10.828125 C-27.43796875 10.30734375 -26.3603125 9.7865625 -25.25 9.25 C-24.18265625 8.73953125 -23.1153125 8.2290625 -22.015625 7.703125 C-19.1181876 6.06674844 -17.31779484 4.33769008 -15 2 C-11.625 1.375 -11.625 1.375 -8 1 C-6.3603125 0.443125 -6.3603125 0.443125 -4.6875 -0.125 C-2 -1 -2 -1 0 0 Z " fill="#5C5C5C" transform="translate(130,52)"/>
<path d="M0 0 C5.42723061 2.61567165 9.25730779 5.51461557 12 11 C12 11.66 12 12.32 12 13 C12.87398438 13.12181641 12.87398438 13.12181641 13.765625 13.24609375 C17.95796829 14.66064315 20.25954126 18.67982884 23 22 C23.42821045 21.55084229 23.8564209 21.10168457 24.29760742 20.63891602 C26.25026971 18.60292608 28.21854838 16.58273594 30.1875 14.5625 C30.86103516 13.85544922 31.53457031 13.14839844 32.22851562 12.41992188 C32.88916016 11.74638672 33.54980469 11.07285156 34.23046875 10.37890625 C34.83270264 9.7557251 35.43493652 9.13254395 36.05541992 8.49047852 C38.35353057 6.72902647 40.15637568 6.36269623 43 6 C39.31958991 10.47617443 35.45034743 14.75714101 31.4375 18.9375 C30.74950317 19.68253784 30.74950317 19.68253784 30.04760742 20.44262695 C27.84791148 22.69586838 26.42888072 23.92202169 23.29296875 24.4921875 C21 24 21 24 18.875 21.1875 C18.25625 20.135625 17.6375 19.08375 17 18 C14.89967042 15.56361768 14.15319369 15.05106456 11 14 C11 13.34 11 12.68 11 12 C10.34 12 9.68 12 9 12 C9 11.01 9 10.02 9 9 C8.34 9 7.68 9 7 9 C5.2856382 7.04072937 3.61594832 5.04119788 2 3 C-0.92825786 4.30819437 -2.85136178 5.65672249 -4.98828125 8.0390625 C-5.53033203 8.61914062 -6.07238281 9.19921875 -6.63085938 9.796875 C-7.75051429 11.01406083 -8.85999383 12.24068701 -9.95898438 13.4765625 C-13.07704977 16.77501184 -14.22358878 17.92104293 -18.91796875 18.3984375 C-19.93503906 18.26695313 -20.95210938 18.13546875 -22 18 C-22 17.67 -22 17.34 -22 17 C-21.00871094 16.82726562 -20.01742188 16.65453125 -18.99609375 16.4765625 C-13.78419045 14.98744727 -10.68008005 11.22333834 -7.0625 7.375 C-6.03672852 6.31539062 -6.03672852 6.31539062 -4.99023438 5.234375 C-3.31485716 3.50041817 -1.6523227 1.75589163 0 0 Z " fill="#939393" transform="translate(304,54)"/>
<path d="M0 0 C2.625 -0.5 2.625 -0.5 6 0 C8.36530623 2.43193457 10.12393556 5.18590334 12 8 C12.66 8.66 13.32 9.32 14 10 C16.9628331 9.60495559 19.38326241 8.40182371 22 7 C20.84826645 9.46800047 19.95216435 11.04783565 18 13 C15.0558194 13.08411945 13.44496876 12.38237975 11.22265625 10.47265625 C9.43614184 8.68614184 7.71185918 6.85789456 6 5 C4.32346967 3.24088197 3.18045414 2.09022707 1 1 C1.495 1.99 1.495 1.99 2 3 C2.08471364 4.81341842 2.10721083 6.62994161 2.09765625 8.4453125 C2.09515869 9.41484863 2.09266113 10.38438477 2.09008789 11.38330078 C2.08098389 12.61806152 2.07187988 13.85282227 2.0625 15.125 C2.041875 19.04375 2.02125 22.9625 2 27 C-9.55 27 -21.1 27 -33 27 C-33 23.37 -33 19.74 -33 16 C-34.0725 16.515625 -35.145 17.03125 -36.25 17.5625 C-38.4088844 18.46853783 -39.77006569 19 -42.125 19 C-44.93520868 17.50122204 -46.85613439 15.32252107 -49 13 C-48.67 12.34 -48.34 11.68 -48 11 C-47.2575 11.845625 -46.515 12.69125 -45.75 13.5625 C-44.38875 14.7690625 -44.38875 14.7690625 -43 16 C-41.04105639 15.88693303 -41.04105639 15.88693303 -39 15 C-36.66699067 14.96111651 -34.33290199 14.9551365 -32 15 C-32 18.63 -32 22.26 -32 26 C-21.11 26 -10.22 26 1 26 C0.505 18.575 0.505 18.575 0 11 C-0.03569348 7.32357175 -0.06870545 3.67192461 0 0 Z " fill="#A0A0A0" transform="translate(222,179)"/>
<path d="M0 0 C0.33 0 0.66 0 1 0 C0.94199219 0.79664062 0.88398438 1.59328125 0.82421875 2.4140625 C0.3033741 9.55885918 0.3033741 9.55885918 3.5 15.625 C4.325 16.40875 5.15 17.1925 6 18 C6 18.66 6 19.32 6 20 C5.34 20 4.68 20 4 20 C4 24.95 4 29.9 4 35 C3.67 35 3.34 35 3 35 C2.80664062 33.94039062 2.61328125 32.88078125 2.4140625 31.7890625 C2.15144936 30.40096447 1.88840614 29.01294776 1.625 27.625 C1.49867188 26.92632812 1.37234375 26.22765625 1.2421875 25.5078125 C0.49856679 21.32740535 0.49856679 21.32740535 -2 18 C-3.04600854 26.72514052 -3.04600854 26.72514052 -2.125 35.375 C-2 39 -2 39 -3.41796875 40.8984375 C-5.3125 42.75 -5.3125 42.75 -7.23828125 44.359375 C-9.11602707 46.10805182 -9.99713664 47.65828859 -11 50 C-11.375 47.875 -11.375 47.875 -11 45 C-10.00613281 44.175 -9.01226562 43.35 -7.98828125 42.5 C-5.91050441 40.50511319 -5.08156832 39.44281225 -4.5546875 36.58251953 C-4.51772663 33.7442324 -4.62481782 30.95729475 -4.8125 28.125 C-5.20846272 20.88034879 -5.04774025 15.66250194 -2 9 C-1.34 9 -0.68 9 0 9 C0 6.03 0 3.06 0 0 Z " fill="#747474" transform="translate(397,67)"/>
<path d="M0 0 C0.33 0 0.66 0 1 0 C4.83243598 16.46226594 6.19185243 32.74336027 7.20898438 49.58544922 C7.41492746 52.91501983 7.64371238 56.24242152 7.875 59.5703125 C7.92930176 60.59093781 7.98360352 61.61156311 8.03955078 62.66311646 C8.1064209 63.59944916 8.17329102 64.53578186 8.2421875 65.50048828 C8.2922998 66.32396759 8.34241211 67.1474469 8.39404297 67.99588013 C8.8206925 70.20019397 8.8206925 70.20019397 11.04736328 71.28121948 C11.6917334 71.51841705 12.33610352 71.75561462 13 72 C11.125 72.625 11.125 72.625 9 73 C7 71 7 71 6.8046875 68.1796875 C6.82789063 67.08914062 6.85109375 65.99859375 6.875 64.875 C6.89304687 63.77929688 6.91109375 62.68359375 6.9296875 61.5546875 C6.95289063 60.71164063 6.97609375 59.86859375 7 59 C6.34 59 5.68 59 5 59 C3.63741936 56.27483873 3.8196811 54.03673493 3.75390625 50.98828125 C3.72232422 49.76173828 3.69074219 48.53519531 3.65820312 47.27148438 C3.62662109 45.96501953 3.59503906 44.65855469 3.5625 43.3125 C3.24165415 32.19165671 2.78072894 21.30591752 0.44140625 10.39453125 C-0.20476293 6.88920639 -0.06033369 3.55968782 0 0 Z " fill="#808080" transform="translate(263,94)"/>
<path d="M0 0 C0.92321855 3.03905386 1.02162761 5.39994788 0.66015625 8.546875 C0.56669922 9.39121094 0.47324219 10.23554687 0.37695312 11.10546875 C0.27318359 11.97816406 0.16941406 12.85085937 0.0625 13.75 C-0.03740234 14.63816406 -0.13730469 15.52632812 -0.24023438 16.44140625 C-0.48715401 18.62840871 -0.74061635 20.81444667 -1 23 C3.34184202 22.81535634 3.34184202 22.81535634 7 21 C13.03037619 20.01321117 18.89867013 19.88747547 25 20 C25.7265625 21.71484375 25.7265625 21.71484375 26 24 C22.14363866 30.14674169 17.10611685 33.43461625 10.125 35.0625 C6.99910921 35.62782068 4.17518276 36 1 36 C1 37.65 1 39.3 1 41 C-1 38 -1 38 -1 35 C2.5635845 33.62939058 5.59526058 32.9435135 9.375 32.8125 C15.07016278 32.31140277 18.17569329 28.9710427 22 25 C22.66 24.34 23.32 23.68 24 23 C21.52063774 23.14298163 19.04151116 23.28862199 16.5625 23.4375 C15.46893188 23.50300049 15.46893188 23.50300049 14.35327148 23.56982422 C10.40497412 23.81640085 6.48957943 24.13411507 2.5625 24.625 C1.386875 24.74875 0.21125 24.8725 -1 25 C-2.87149284 23.12850716 -2.17405016 20.0614799 -2.1875 17.5625 C-2.15635231 11.47624145 -1.51892402 5.88583058 0 0 Z " fill="#949494" transform="translate(340,86)"/>
<path d="M0 0 C0.66 0.33 1.32 0.66 2 1 C1.42894531 1.42667969 0.85789062 1.85335937 0.26953125 2.29296875 C-5.77656023 6.95489938 -11.12561518 11.96334713 -16.35620117 17.51831055 C-19.6215359 20.9099205 -22.55880293 23.19179834 -27 25 C-27.66 25 -28.32 25 -29 25 C-27.6068597 21.74698204 -26.05039845 19.96613784 -23.3125 17.75 C-19.68597784 14.68950489 -16.60918275 11.41428288 -13.54296875 7.80078125 C-11.79436686 5.7600079 -9.93831989 3.86078709 -8 2 C-8 2.66 -8 3.32 -8 4 C-5.0280615 2.87548273 -2.66559313 1.77706209 0 0 Z " fill="#5D5D5D" transform="translate(335,194)"/>
<path d="M0 0 C4.53280359 2.04516952 7.44505367 4.72341291 10 9 C12.07133406 16.47117025 10.76847726 23.27057633 7 30 C7.7115625 30.6496875 7.7115625 30.6496875 8.4375 31.3125 C11.11032589 34.19915196 11.11679718 36.94099486 11.0625 40.6875 C11.05347656 41.49574219 11.04445313 42.30398437 11.03515625 43.13671875 C11.02355469 43.75160156 11.01195312 44.36648437 11 45 C10.67 45 10.34 45 10 45 C9.67 41.37 9.34 37.74 9 34 C5.37 34.99 1.74 35.98 -2 37 C-0.96447478 32.8578991 -0.6227582 32.35564637 2.375 29.75 C6.01360699 26.22392724 8.23574765 23.07614524 9 18 C8.91724141 11.26108661 6.04513693 7.24642655 1.4609375 2.53125 C0 1 0 1 0 0 Z " fill="#797979" transform="translate(246,93)"/>
<path d="M0 0 C0.33 0 0.66 0 1 0 C0.85764543 1.72945653 0.71095618 3.45855654 0.5625 5.1875 C0.48128906 6.15042969 0.40007813 7.11335937 0.31640625 8.10546875 C0.02333849 10.78649602 -0.42703754 13.3662986 -1 16 C-0.34 16 0.32 16 1 16 C1.4125 16.78375 1.825 17.5675 2.25 18.375 C4.44888887 21.6733333 6.23110958 22.07871568 10 23 C9.67 23.66 9.34 24.32 9 25 C7.02 24.34 5.04 23.68 3 23 C3 24.65 3 26.3 3 28 C2.34 28 1.68 28 1 28 C0.67 25.03 0.34 22.06 0 19 C-0.99 19 -1.98 19 -3 19 C-3.020625 20.299375 -3.04125 21.59875 -3.0625 22.9375 C-3.07410156 23.66839844 -3.08570313 24.39929688 -3.09765625 25.15234375 C-3.20561184 27.01732141 -3.20561184 27.01732141 -2 28 C-1.76572222 30.01594582 -1.58663876 32.038474 -1.4375 34.0625 C-1.35371094 35.16722656 -1.26992187 36.27195313 -1.18359375 37.41015625 C-1.12300781 38.26480469 -1.06242188 39.11945313 -1 40 C-4.79087637 36.20912363 -5.10496912 30.08303676 -5.3125 24.875 C-5.12250743 16.60301586 -3.31937943 7.56241227 0 0 Z " fill="#585858" transform="translate(10,146)"/>
<path d="M0 0 C0.33 0.66 0.66 1.32 1 2 C0.360625 2.28875 -0.27875 2.5775 -0.9375 2.875 C-3.15206079 3.82823451 -3.15206079 3.82823451 -4 6 C-4.66 6 -5.32 6 -6 6 C-6 6.66 -6 7.32 -6 8 C-8.56560064 10.56560064 -9.98971612 11.97650503 -13.6875 12.0625 C-16 11 -16 11 -17.3125 8.4375 C-17.539375 7.633125 -17.76625 6.82875 -18 6 C-13.05172827 2.70115218 -5.91723373 -1.97241124 0 0 Z " fill="#070707" transform="translate(139,50)"/>
<path d="M0 0 C0.33 0 0.66 0 1 0 C1.01458252 1.19786133 1.02916504 2.39572266 1.04418945 3.62988281 C1.1032288 8.1778395 1.18042816 12.72535394 1.26245117 17.27294922 C1.29521383 19.22176813 1.32338763 21.1706709 1.34643555 23.11962891 C1.48392673 34.45241271 2.04121202 45.43426765 4.05574036 56.60650635 C5.3714202 64.08646881 5.3714202 64.08646881 4 68 C1.78515625 70.01953125 1.78515625 70.01953125 -0.9375 71.8125 C-1.83339844 72.41707031 -2.72929687 73.02164063 -3.65234375 73.64453125 C-6 75 -6 75 -8 75 C-6.72995023 71.18985068 -5.48886603 70.82372543 -2 69 C-0.34630643 68.30177383 1.31727014 67.62501395 3 67 C2.690625 65.948125 2.38125 64.89625 2.0625 63.8125 C-1.21428163 50.38231051 -0.11832365 35.90010628 -0.0625 22.1875 C-0.05747453 20.0306 -0.05291348 17.87369886 -0.04882812 15.71679688 C-0.03790651 10.47783947 -0.02125158 5.23892516 0 0 Z " fill="#9F9F9F" transform="translate(294,78)"/>
<path d="M0 0 C-3.96 1.98 -3.96 1.98 -8 4 C-7.37158027 7.9714169 -7.37158027 7.9714169 -5 10 C-5.66 10.66 -6.32 11.32 -7 12 C-8.65 10.02 -10.3 8.04 -12 6 C-13.98 6.66 -15.96 7.32 -18 8 C-18 8.66 -18 9.32 -18 10 C-18.99 10.33 -19.98 10.66 -21 11 C-21.515625 11.515625 -22.03125 12.03125 -22.5625 12.5625 C-23.036875 13.036875 -23.51125 13.51125 -24 14 C-24.66 14 -25.32 14 -26 14 C-26 13.34 -26 12.68 -26 12 C-26.66 12 -27.32 12 -28 12 C-28.33 12.66 -28.66 13.32 -29 14 C-29.66 13.34 -30.32 12.68 -31 12 C-30.18015625 11.61328125 -29.3603125 11.2265625 -28.515625 10.828125 C-27.43796875 10.30734375 -26.3603125 9.7865625 -25.25 9.25 C-24.18265625 8.73953125 -23.1153125 8.2290625 -22.015625 7.703125 C-19.1181876 6.06674844 -17.31779484 4.33769008 -15 2 C-11.625 1.375 -11.625 1.375 -8 1 C-6.3603125 0.443125 -6.3603125 0.443125 -4.6875 -0.125 C-2 -1 -2 -1 0 0 Z " fill="#5A5A5A" transform="translate(130,52)"/>
<path d="M0 0 C0 0.99 0 1.98 0 3 C-0.66 3 -1.32 3 -2 3 C-2.12117188 4.30195313 -2.24234375 5.60390625 -2.3671875 6.9453125 C-2.53609385 8.6719107 -2.70538501 10.39847128 -2.875 12.125 C-2.99294922 13.40890625 -2.99294922 13.40890625 -3.11328125 14.71875 C-3.58220718 19.40800928 -4.27213429 23.57143661 -6 28 C-10.41062136 29.0257259 -12.92630576 29.03684712 -17 27 C-17 26.67 -17 26.34 -17 26 C-14.03 26 -11.06 26 -8 26 C-8.020625 25.195625 -8.04125 24.39125 -8.0625 23.5625 C-8 21 -8 21 -7 20 C-6.76346477 17.47403741 -6.57826308 14.96892793 -6.4375 12.4375 C-6.39431641 11.72658203 -6.35113281 11.01566406 -6.30664062 10.28320312 C-6.20028223 8.52238088 -6.09961154 6.7612168 -6 5 C-5.01 4.67 -4.02 4.34 -3 4 C-2.67 3.01 -2.34 2.02 -2 1 C-1.34 0.67 -0.68 0.34 0 0 Z " fill="#6A6A6A" transform="translate(370,125)"/>
<path d="M0 0 C2.15281528 3.22922292 2.40375948 4.75468538 2.81640625 8.5390625 C2.94039795 9.66602539 3.06438965 10.79298828 3.19213867 11.95410156 C3.31435791 13.16549805 3.43657715 14.37689453 3.5625 15.625 C3.69180908 16.86217773 3.82111816 18.09935547 3.9543457 19.37402344 C5.1666825 31.56409713 5.7076513 43.75688865 6 56 C5.34 55.67 4.68 55.34 4 55 C3.54061385 52.3521493 3.23377513 49.79717216 3 47.125 C2.92023926 46.2803418 2.84047852 45.43568359 2.75830078 44.56542969 C1.4432143 29.74314887 0.77923997 14.85817687 0 0 Z " fill="#8E8E8E" transform="translate(77,110)"/>
<path d="M0 0 C2.2633453 4.18542973 2.96107989 8.22412813 3.75 12.875 C3.90082031 13.66519531 4.05164063 14.45539063 4.20703125 15.26953125 C5.03751025 20.1153359 5.05485723 23.36912609 3 28 C3.66 28 4.32 28 5 28 C6.80532838 34.1381165 7.36278806 39.94970998 7.65625 46.33984375 C7.7696875 47.21769531 7.883125 48.09554687 8 49 C8.66 49.33 9.32 49.66 10 50 C9.01 50 8.02 50 7 50 C6.03929566 47.11788698 5.89418117 45.30149956 5.9375 42.3125 C5.94652344 41.50425781 5.95554688 40.69601563 5.96484375 39.86328125 C5.98224609 38.94095703 5.98224609 38.94095703 6 38 C5.34 38 4.68 38 4 38 C4 35.03 4 32.06 4 29 C3.34 29 2.68 29 2 29 C1.66022275 25.66729126 1.32936937 22.33375214 1 19 C0.90460938 18.06542969 0.80921875 17.13085938 0.7109375 16.16796875 C0.18019535 10.74681677 -0.1027694 5.44677829 0 0 Z " fill="#868686" transform="translate(217,118)"/>
<path d="M0 0 C3.81684226 1.55500981 6.19195732 4.03595495 9 7 C6.0280615 5.87548273 3.66559313 4.77706209 1 3 C1.20496094 3.66902344 1.40992188 4.33804688 1.62109375 5.02734375 C4.14239385 14.0147532 4.68144288 22.72888928 5 32 C5.99 32 6.98 32 8 32 C8 31.34 8 30.68 8 30 C10.31 29.01 12.62 28.02 15 27 C13.64486335 31.06540996 11.69203082 31.97300269 8 34 C5.80078125 33.609375 5.80078125 33.609375 4 33 C3.80664062 31.88882813 3.61328125 30.77765625 3.4140625 29.6328125 C3.1512852 28.13016572 2.88824705 26.62756455 2.625 25.125 C2.42136841 23.96049316 2.42136841 23.96049316 2.21362305 22.77246094 C1.34662782 17.85248091 0.41128419 12.95669927 -0.66796875 8.078125 C-1.05155091 5.67735198 -1.11970552 3.42713264 -1 1 C-0.67 0.67 -0.34 0.34 0 0 Z " fill="#8F8F8F" transform="translate(228,98)"/>
<path d="M0 0 C0.99 0.33 1.98 0.66 3 1 C-10.43963994 10.76019961 -10.43963994 10.76019961 -18.734375 9.78515625 C-22.84180102 10.17465355 -25.00029436 13.28887263 -27.6015625 16.25 C-28.06304687 16.8275 -28.52453125 17.405 -29 18 C-27.35 18 -25.7 18 -24 18 C-27.22791555 20.1519437 -28.28400809 20.20086443 -32 20 C-32 20.66 -32 21.32 -32 22 C-33.32 21.67 -34.64 21.34 -36 21 C-35.67 20.01 -35.34 19.02 -35 18 C-35.66 18 -36.32 18 -37 18 C-36.67 17.34 -36.34 16.68 -36 16 C-34.453125 15.9071875 -34.453125 15.9071875 -32.875 15.8125 C-28.67092861 14.93100116 -28.28972254 14.51566348 -25.6875 11.4375 C-22.62670845 8.05022402 -22.62670845 8.05022402 -19.7578125 7.8203125 C-18.95085937 7.90023437 -18.14390625 7.98015625 -17.3125 8.0625 C-11.01701475 8.62252783 -7.40133094 5.33999818 -2.56640625 1.65234375 C-1.71949219 1.10707031 -0.87257813 0.56179687 0 0 Z " fill="#A2A2A2" transform="translate(300,178)"/>
<path d="M0 0 C1.66666667 8.33333333 3.33333333 16.66666667 5 25 C1.04415958 22.36277305 1.00775302 20.58111579 0 16 C-0.27566968 13.36033278 -0.48427667 10.71278937 -0.625 8.0625 C-0.66367188 7.37865234 -0.70234375 6.69480469 -0.7421875 5.99023438 C-0.83522412 4.32720487 -0.91863787 2.66364153 -1 1 C-2.98 1.66 -4.96 2.32 -7 3 C-6.94779297 4.69769531 -6.94779297 4.69769531 -6.89453125 6.4296875 C-6.86639664 7.91144353 -6.83909613 9.39321556 -6.8125 10.875 C-6.77479492 11.99455078 -6.77479492 11.99455078 -6.73632812 13.13671875 C-6.70703125 15.3046875 -6.70703125 15.3046875 -7 19 C-7.99 19.66 -8.98 20.32 -10 21 C-10.16216064 18.08110852 -10.28091202 15.17120775 -10.375 12.25 C-10.42527344 11.425 -10.47554687 10.6 -10.52734375 9.75 C-10.58506117 7.36434678 -10.55113774 5.32353383 -10 3 C-6.48726615 -0.34451842 -4.59714579 -1.49535179 0 0 Z " fill="#888888" transform="translate(158,139)"/>
<path d="M0 0 C1.485 0.99 1.485 0.99 3 2 C4.96645972 2.06397002 4.96645972 2.06397002 7 1.6875 C7.680625 1.58824219 8.36125 1.48898438 9.0625 1.38671875 C11.20446315 1.00096755 11.20446315 1.00096755 14 0 C14.33 0.99 14.66 1.98 15 3 C9 9 9 9 5.4375 9.0625 C4.303125 9.041875 3.16875 9.02125 2 9 C1.34 6.03 0.68 3.06 0 0 Z " fill="#141414" transform="translate(90,64)"/>
<path d="M0 0 C2.97980298 2.97980298 2.42613549 6.37053964 2.5625 10.375 C2.62277942 11.9037888 2.68647287 13.43244755 2.75390625 14.9609375 C2.77783447 15.63946777 2.8017627 16.31799805 2.82641602 17.01708984 C2.94932913 19.02464291 2.94932913 19.02464291 3.50927734 21.02294922 C4.30375308 24.22377732 4.10276401 27.47312906 4.0625 30.75 C4.05798828 31.44738281 4.05347656 32.14476562 4.04882812 32.86328125 C4.0371002 34.57555803 4.01916653 36.28779033 4 38 C6.97 36.02 9.94 34.04 13 32 C13.66 32.33 14.32 32.66 15 33 C13.78622542 34.03908742 12.55320279 35.055719 11.3125 36.0625 C10.62800781 36.63097656 9.94351563 37.19945312 9.23828125 37.78515625 C6.37638156 39.33847353 5.07982825 38.75155838 2 38 C1.71221708 33.71348878 1.42749623 29.42678797 1.14550781 25.13989258 C1.04932699 23.68410871 0.95233601 22.22837812 0.85449219 20.77270508 C0.7133183 18.67022251 0.57514041 16.56756025 0.4375 14.46484375 C0.35371094 13.202771 0.26992187 11.94069824 0.18359375 10.64038086 C0.0043559 7.08637076 -0.03207049 3.55782035 0 0 Z " fill="#919191" transform="translate(91,115)"/>
<path d="M0 0 C0.66 0.33 1.32 0.66 2 1 C1.01 2.485 1.01 2.485 0 4 C-0.18385162 6.46379655 -0.25620644 8.81109654 -0.23046875 11.2734375 C-0.23001053 11.99302643 -0.22955231 12.71261536 -0.2290802 13.45401001 C-0.22605816 14.98221478 -0.21817324 16.51041647 -0.20581055 18.03857422 C-0.18783838 20.33182222 -0.18529916 22.62465846 -0.18554688 24.91796875 C-0.16622435 32.71849758 0.06471488 40.43410786 0.78173828 48.20825195 C1.11516278 52.47302724 1.0868385 56.72561597 1 61 C0.67 61 0.34 61 0 61 C-1.83694627 53.96551731 -2.29383415 47.50720249 -2.265625 40.25390625 C-2.26753845 39.16158188 -2.2694519 38.06925751 -2.27142334 36.9438324 C-2.27277674 34.65208707 -2.26913976 32.36033386 -2.26074219 30.06860352 C-2.24995808 26.54881856 -2.26070334 23.02953562 -2.2734375 19.50976562 C-2.27211717 17.2786447 -2.26955742 15.0475241 -2.265625 12.81640625 C-2.26967346 11.76127335 -2.27372192 10.70614044 -2.27789307 9.61903381 C-2.27158875 8.6471965 -2.26528442 7.67535919 -2.25878906 6.67407227 C-2.25719788 5.8174147 -2.25560669 4.96075714 -2.25396729 4.07814026 C-2 2 -2 2 0 0 Z " fill="#8D8D8D" transform="translate(107,74)"/>
<path d="M0 0 C0.66 0 1.32 0 2 0 C1.42543617 3.89042016 0.28006931 6.55867496 -1.8125 9.875 C-2.34746094 10.73609375 -2.88242188 11.5971875 -3.43359375 12.484375 C-3.95050781 13.31453125 -4.46742187 14.1446875 -5 15 C-6.35450802 17.32201375 -7.67721795 19.65969329 -9 22 C-9.33 21.01 -9.66 20.02 -10 19 C-11.32 20.32 -12.64 21.64 -14 23 C-14.66 22.67 -15.32 22.34 -16 22 C-15.32626343 21.10692139 -15.32626343 21.10692139 -14.63891602 20.19580078 C-12.61178157 17.50678239 -10.5871126 14.81591757 -8.5625 12.125 C-7.50192383 10.71927734 -7.50192383 10.71927734 -6.41992188 9.28515625 C-5.74638672 8.38925781 -5.07285156 7.49335938 -4.37890625 6.5703125 C-3.7557251 5.74289551 -3.13254395 4.91547852 -2.49047852 4.06298828 C-0.97144762 2.07731396 -0.97144762 2.07731396 0 0 Z " fill="#949494" transform="translate(118,3)"/>
<path d="M0 0 C4.95 0 9.9 0 15 0 C11.4705649 3.5294351 8.32901222 6.44489177 4.375 9.375 C2.96347656 10.43847656 2.96347656 10.43847656 1.5234375 11.5234375 C0.69070313 12.01070312 -0.14203125 12.49796875 -1 13 C-1.99 12.67 -2.98 12.34 -4 12 C-2.7934375 11.319375 -2.7934375 11.319375 -1.5625 10.625 C1.08856572 9.25274335 1.08856572 9.25274335 2 7 C0.68 7 -0.64 7 -2 7 C-1.67 5.68 -1.34 4.36 -1 3 C-1 3.66 -1 4.32 -1 5 C1.31 4.01 3.62 3.02 6 2 C4.02 2 2.04 2 0 2 C0 1.34 0 0.68 0 0 Z " fill="#666666" transform="translate(354,185)"/>
<path d="M0 0 C1.12199079 1.68298619 2.21670598 3.38794241 3.203125 5.15380859 C4.93579917 7.29760266 4.93579917 7.29760266 8.046875 7.51416016 C9.26890625 7.52237793 10.4909375 7.5305957 11.75 7.5390625 C12.40452148 7.55085541 13.05904297 7.56264832 13.73339844 7.57479858 C15.82250768 7.6100716 17.91061729 7.61922822 20 7.625 C22.08908218 7.64135101 24.17771775 7.66341006 26.26660156 7.69662476 C28.16196101 7.72523362 30.05757221 7.73538109 31.953125 7.74462891 C35 8 35 8 38 10 C37.34257813 9.98839844 36.68515625 9.97679687 36.0078125 9.96484375 C31.11722135 9.91845603 26.28099167 9.94795811 21.40625 10.36328125 C20.22071533 10.4571814 20.22071533 10.4571814 19.01123047 10.55297852 C17.44612575 10.68220294 15.88236784 10.82923613 14.32080078 10.99584961 C8.98590728 11.41900233 6.22800811 10.60210962 2 7 C0 4 0 4 0 0 Z " fill="#7E7E7E" transform="translate(20,171)"/>
<path d="M0 0 C0.66 0.33 1.32 0.66 2 1 C-0.70856623 3.85366002 -3.44497625 6.67899029 -6.1875 9.5 C-6.95642578 10.31082031 -7.72535156 11.12164062 -8.51757812 11.95703125 C-9.26845703 12.72402344 -10.01933594 13.49101563 -10.79296875 14.28125 C-11.4789917 14.99345703 -12.16501465 15.70566406 -12.87182617 16.43945312 C-15.44731395 18.32800629 -16.87699582 18.32446797 -20 18 C-20 17.01 -20 16.02 -20 15 C-19.01 15 -18.02 15 -17 15 C-15.33939917 13.72188857 -15.33939917 13.72188857 -13.75 11.97265625 C-13.1415625 11.34552734 -12.533125 10.71839844 -11.90625 10.07226562 C-10.96265625 9.07743164 -10.96265625 9.07743164 -10 8.0625 C-8.75469343 6.75722478 -7.50487256 5.45623755 -6.25 4.16015625 C-5.69828125 3.57886963 -5.1465625 2.99758301 -4.578125 2.39868164 C-3 1 -3 1 0 0 Z " fill="#606060" transform="translate(345,60)"/>
<path d="M0 0 C5.26493886 -0.08774898 5.26493886 -0.08774898 8 1 C9.94401702 3.80376539 10.95178936 6.77245876 12 10 C12.495 10.99 12.495 10.99 13 12 C11.1875 11.375 11.1875 11.375 9 10 C8.525625 8.989375 8.05125 7.97875 7.5625 6.9375 C6.31188788 3.86624663 6.31188788 3.86624663 3.75390625 2.98046875 C0.75608257 2.71425129 0.75608257 2.71425129 -1.7890625 5.2734375 C-2.75000522 6.29278006 -3.69493925 7.3274041 -4.625 8.375 C-9.67844418 13.89281473 -9.67844418 13.89281473 -13 15 C-15.31 12.69 -17.62 10.38 -20 8 C-17 8 -17 8 -14.8125 10 C-14.214375 10.66 -13.61625 11.32 -13 12 C-9.60312324 10.53438126 -7.39277314 8.63352456 -4.8125 6 C-4.11769531 5.29875 -3.42289063 4.5975 -2.70703125 3.875 C-0.93810675 2.10241668 -0.93810675 2.10241668 0 0 Z " fill="#9C9C9C" transform="translate(78,174)"/>
<path d="M0 0 C-0.43720822 9.9246265 -2.72281423 19.3722704 -5 29 C-5.33 29 -5.66 29 -6 29 C-5.59314111 19.64224564 -4.39561147 11.07017674 -2 2 C-2.93972656 2.93972656 -2.93972656 2.93972656 -3.8984375 3.8984375 C-6.93229167 6.93229167 -9.96614583 9.96614583 -13 13 C-12.46348047 8.96685318 -10.45798792 7.05548319 -7.625 4.25 C-6.83351563 3.45078125 -6.04203125 2.6515625 -5.2265625 1.828125 C-3 0 -3 0 0 0 Z " fill="#8E8E8E" transform="translate(377,58)"/>
<path d="M0 0 C0 3 0 3 -2 6 C-2.38206408 7.96692247 -2.68452609 9.94984783 -2.9375 11.9375 C-4.17600888 20.60706218 -5.53639783 29.34811057 -10 37 C-10.66 36.67 -11.32 36.34 -12 36 C-10.92578125 33.55859375 -10.92578125 33.55859375 -9.8515625 31.1171875 C-7.6930649 25.75064759 -6.68382403 20.80741681 -6.1875 15.0625 C-5.54282738 8.73980476 -4.43007014 4.66323173 0 0 Z " fill="#8B8B8B" transform="translate(403,129)"/>
<path d="M0 0 C0.33 0.66 0.66 1.32 1 2 C1.66 2 2.32 2 3 2 C6.66462168 12.01226994 6.66462168 12.01226994 6 16 C4.75 18.5 4.75 18.5 3 21 C2.360625 21.928125 1.72125 22.85625 1.0625 23.8125 C0.381875 24.534375 -0.29875 25.25625 -1 26 C-2.32 26 -3.64 26 -5 26 C-5.66 24.35 -6.32 22.7 -7 21 C-6.443125 21.268125 -5.88625 21.53625 -5.3125 21.8125 C-4.1678125 21.9053125 -4.1678125 21.9053125 -3 22 C-0.31256494 19.72926391 -0.31256494 19.72926391 2 17 C2.66 16.34 3.32 15.68 4 15 C3.69187625 12.22688626 2.58026349 10.05979021 1.4375 7.5 C0 4 0 4 0 0 Z " fill="#5D5D5D" transform="translate(173,149)"/>
<path d="M0 0 C0.66 0 1.32 0 2 0 C1.84402344 0.79921875 1.68804687 1.5984375 1.52734375 2.421875 C0.47554866 8.35650689 -0.11131945 13.39289045 0.8125 19.375 C1.40650983 24.37788275 1.40650983 24.37788275 -0.4140625 27.1640625 C-2.3125 29 -2.3125 29 -4.23828125 30.5 C-6.19396153 32.16514685 -7.00475657 33.65587334 -8 36 C-8.375 33.875 -8.375 33.875 -8 31 C-7.00742187 30.18144531 -6.01484375 29.36289063 -4.9921875 28.51953125 C-2.87675253 26.49101484 -2.07641794 25.41370815 -1.53857422 22.50195312 C-1.48203247 19.58623281 -1.57484882 16.72343652 -1.75 13.8125 C-1.83669443 11.84020178 -1.91519396 9.86752141 -1.984375 7.89453125 C-2.03303711 7.02675049 -2.08169922 6.15896973 -2.13183594 5.26489258 C-2 3 -2 3 0 0 Z " fill="#8E8E8E" transform="translate(394,81)"/>
<path d="M0 0 C1.58206057 0.00667536 3.16410534 0.0186375 4.74609375 0.03515625 C5.55240234 0.03966797 6.35871094 0.04417969 7.18945312 0.04882812 C9.18753131 0.06065107 11.18557158 0.07858711 13.18359375 0.09765625 C13.18359375 0.42765625 13.18359375 0.75765625 13.18359375 1.09765625 C14.24320313 1.29101562 15.3028125 1.484375 16.39453125 1.68359375 C17.78262928 1.94620689 19.17064599 2.20925011 20.55859375 2.47265625 C21.25726563 2.59898438 21.9559375 2.7253125 22.67578125 2.85546875 C27.95703125 3.87109375 27.95703125 3.87109375 30.18359375 6.09765625 C29.60504639 6.04230713 29.02649902 5.98695801 28.43041992 5.92993164 C26.71128468 5.76556103 24.99212576 5.60143809 23.27294922 5.4375 C21.33567471 5.25234571 19.39849995 5.06614483 17.46142578 4.87890625 C11.69358311 4.32409937 5.92740109 3.81570203 0.14453125 3.44140625 C-1.81640625 3.09765625 -1.81640625 3.09765625 -4.81640625 1.09765625 C-3.81640625 0.09765625 -3.81640625 0.09765625 0 0 Z " fill="#989898" transform="translate(47.81640625,43.90234375)"/>
<path d="M0 0 C1.88234082 1.59376773 2.89165478 2.56226812 3.49243164 4.98950195 C3.57545532 6.10264771 3.57545532 6.10264771 3.66015625 7.23828125 C3.73169922 8.05876953 3.80324219 8.87925781 3.87695312 9.72460938 C3.93818359 10.57861328 3.99941406 11.43261719 4.0625 12.3125 C4.49266182 17.87904948 5.07381372 22.7128961 7 28 C7.125 31.375 7.125 31.375 7 34 C1.0911991 25.13679865 -0.47936325 10.54599143 0 0 Z " fill="#888888" transform="translate(307,114)"/>
<path d="M0 0 C0.33 0.66 0.66 1.32 1 2 C2.88764903 2.68472665 2.88764903 2.68472665 5.0625 3.125 C5.79597656 3.29257813 6.52945313 3.46015625 7.28515625 3.6328125 C7.85105469 3.75398438 8.41695312 3.87515625 9 4 C9.06058594 4.9178125 9.12117187 5.835625 9.18359375 6.78125 C9.62311242 13.218508 10.10530999 19.60935705 11 26 C6.11473807 21.11473807 6.55144419 11.52542296 6 5 C2.37 5.33 -1.26 5.66 -5 6 C-3 2 -3 2 0 0 Z " fill="#929292" transform="translate(162,123)"/>
<path d="M0 0 C0.99 0.33 1.98 0.66 3 1 C1.56547553 2.93976579 0.12753183 4.87682931 -1.3125 6.8125 C-1.71662109 7.35970703 -2.12074219 7.90691406 -2.53710938 8.47070312 C-4.54284347 11.16132204 -6.5291298 13.72104205 -9 16 C-8.67 14.35 -8.34 12.7 -8 11 C-9.65 12.32 -11.3 13.64 -13 15 C-13.66 14.67 -14.32 14.34 -15 14 C-10.05 9.38 -5.1 4.76 0 0 Z " fill="#757575" transform="translate(426,96)"/>
<path d="M0 0 C2.12038635 2.61514317 4.13091744 5.19637616 6 8 C4.96875 8.78375 3.9375 9.5675 2.875 10.375 C0.92689907 12.55523445 0.03554645 14.15142714 -0.08789062 17.09814453 C0.21599599 22.45249465 1.07299712 27.72278479 2 33 C-1.84393342 27.23409987 -2.57423319 20.77595169 -2 14 C-1.23816406 13.319375 -1.23816406 13.319375 -0.4609375 12.625 C1.29087268 11.0293853 1.29087268 11.0293853 1.07421875 8.30078125 C0.94660156 7.31464844 0.81898438 6.32851562 0.6875 5.3125 C0.56761719 4.31863281 0.44773438 3.32476562 0.32421875 2.30078125 C0.21722656 1.54152344 0.11023438 0.78226562 0 0 Z " fill="#9B9B9B" transform="translate(215,84)"/>
<path d="M0 0 C1 3 1 3 -2 10 C-7.61 10 -13.22 10 -19 10 C-19.33 8.35 -19.66 6.7 -20 5 C-19.34 4.01 -18.68 3.02 -18 2 C-18 3.98 -18 5.96 -18 8 C-13.05 8 -8.1 8 -3 8 C-3 7.01 -3 6.02 -3 5 C-2.34 5 -1.68 5 -1 5 C-0.67 3.35 -0.34 1.7 0 0 Z " fill="#888888" transform="translate(56,138)"/>
<path d="M0 0 C4.83454463 3.22302975 6.75216109 6.82620318 9 12 C14.07227888 9.64732597 17.85781036 6.25810184 20 1 C20.32722507 4.16687316 20.28730647 5.59149726 18.42578125 8.23828125 C17.72839844 8.92277344 17.03101563 9.60726562 16.3125 10.3125 C15.62800781 11.00988281 14.94351562 11.70726563 14.23828125 12.42578125 C11.59149726 14.28730647 10.16687316 14.32722507 7 14 C7 13.34 7 12.68 7 12 C6.01 12 5.02 12 4 12 C2.66666667 8 1.33333333 4 0 0 Z " fill="#AAAAAA" transform="translate(353,86)"/>
<path d="M0 0 C0.97608217 2.92824652 1.08226668 4.95613276 1 8 C1.89307861 7.98952637 2.78615723 7.97905273 3.70629883 7.96826172 C7.02175477 7.93416408 10.33702421 7.90909363 13.65258789 7.89013672 C15.08718812 7.880083 16.52176789 7.86643806 17.95629883 7.84912109 C20.01909438 7.82484451 22.08161885 7.81351081 24.14453125 7.8046875 C25.38565674 7.79421387 26.62678223 7.78374023 27.90551758 7.77294922 C31 8 31 8 34 10 C29.03377651 10.02465098 24.06758834 10.04283649 19.10131836 10.05493164 C17.41055684 10.0599719 15.71979971 10.06680405 14.02905273 10.07543945 C11.60399293 10.08751857 9.17899056 10.09323123 6.75390625 10.09765625 C5.61327477 10.10539818 5.61327477 10.10539818 4.44960022 10.11329651 C2.6326743 10.11349238 0.81586873 10.06197277 -1 10 C-2 9 -2 9 -2.0625 5.4375 C-2.041875 4.303125 -2.02125 3.16875 -2 2 C-1.34 2 -0.68 2 0 2 C0 1.34 0 0.68 0 0 Z " fill="#B4B4B4" transform="translate(18,151)"/>
<path d="M0 0 C0.66 0 1.32 0 2 0 C1.38722388 2.96175123 0.74627478 4.38058783 -1 7 C-1.66 7 -2.32 7 -3 7 C-4.47853985 8.47853985 -5.95492444 9.95945138 -7.41015625 11.4609375 C-9.42873479 13.41504056 -11.46117233 14.80110916 -14 16 C-14.66 15.67 -15.32 15.34 -16 15 C-14.71034824 13.62437146 -13.37310707 12.29233607 -12 11 C-11.34 11 -10.68 11 -10 11 C-9.731875 10.401875 -9.46375 9.80375 -9.1875 9.1875 C-7.99012525 6.98180967 -6.95521016 5.56416813 -5 4 C-4.01 4 -3.02 4 -2 4 C-1.34 2.68 -0.68 1.36 0 0 Z " fill="#494949" transform="translate(106,22)"/>
<path d="M0 0 C2.75 -0.375 2.75 -0.375 6 0 C8.1875 2.8125 8.1875 2.8125 10 6 C11.62351109 7.79394446 11.62351109 7.79394446 13 9 C12.67 9.99 12.34 10.98 12 12 C11.649375 11.484375 11.29875 10.96875 10.9375 10.4375 C8.95631048 8.63984705 8.95631048 8.63984705 5.6875 9.25 C4.470625 9.4975 3.25375 9.745 2 10 C0.2984375 10.2784375 0.2984375 10.2784375 -1.4375 10.5625 C-2.283125 10.706875 -3.12875 10.85125 -4 11 C-0.87567603 8.47650757 2.38060496 6.72743854 6 5 C4.60804085 2.2160817 2.84424221 2.02101003 0 1 C0 0.67 0 0.34 0 0 Z " fill="#6C6C6C" transform="translate(303,177)"/>
<path d="M0 0 C3.875 1.875 3.875 1.875 5 3 C4.60471152 9.19285282 2.44486592 14.34678372 0 20 C-0.35707031 20.85980469 -0.71414062 21.71960938 -1.08203125 22.60546875 C-3.74154894 28.87077447 -3.74154894 28.87077447 -6 30 C-4.27073932 23.5187872 -2.02605472 17.57466376 0.9140625 11.54296875 C2.00687583 8.98389867 2.68819672 6.76434548 3 4 C1.66846734 1.69495956 1.66846734 1.69495956 0 0 Z " fill="#8B8B8B" transform="translate(20,107)"/>
<path d="M0 0 C0.70125 -0.02578125 1.4025 -0.0515625 2.125 -0.078125 C2.74375 0.03015625 3.3625 0.1384375 4 0.25 C4.66 1.24 5.32 2.23 6 3.25 C5.41992188 3.20359375 4.83984375 3.1571875 4.2421875 3.109375 C-1.49930924 2.84409132 -4.48466275 3.39314943 -9 7.25 C-12.06551137 10.18904638 -15.05660183 13.18886591 -18 16.25 C-18 13.25 -18 13.25 -15.4453125 10.3671875 C-14.34617525 9.27869565 -13.23903153 8.19824319 -12.125 7.125 C-11.56941406 6.57457031 -11.01382812 6.02414063 -10.44140625 5.45703125 C-6.88802231 1.97214628 -4.9726597 0.10969102 0 0 Z " fill="#949494" transform="translate(271,58.75)"/>
<path d="M0 0 C1.625 1.48828125 1.625 1.48828125 3 3 C2.46890625 3.71285156 1.9378125 4.42570312 1.390625 5.16015625 C-2.40185947 10.30215617 -5.99208971 15.36016821 -9 21 C-9.33 20.01 -9.66 19.02 -10 18 C-8.63671875 15.44140625 -8.63671875 15.44140625 -6.6875 12.5625 C-4.59085874 9.43667581 -2.59071501 6.41559619 -1 3 C-2.98 3 -4.96 3 -7 3 C-2.90909091 0.27272727 -2.90909091 0.27272727 0 0 Z " fill="#929292" transform="translate(51,81)"/>
<path d="M0 0 C2.40276009 3.60414013 2.90940836 7.00713045 3.625 11.1875 C3.7590625 11.93708984 3.893125 12.68667969 4.03125 13.45898438 C4.36045419 15.30487928 4.68106498 17.15230309 5 19 C6.32 18.34 7.64 17.68 9 17 C7.6875 19 7.6875 19 6 21 C5.01 21 4.02 21 3 21 C3 20.34 3 19.68 3 19 C2.34 19 1.68 19 1 19 C-0.15316726 12.65758005 -0.09507063 6.43311296 0 0 Z " fill="#898989" transform="translate(135,147)"/>
<path d="M0 0 C0.66 0.33 1.32 0.66 2 1 C0.3970551 2.29318256 -1.20740142 3.58449156 -2.8125 4.875 C-3.70582031 5.59429687 -4.59914063 6.31359375 -5.51953125 7.0546875 C-8 9 -8 9 -11 11 C-11 10.34 -11 9.68 -11 9 C-11.99 9.33 -12.98 9.66 -14 10 C-12.55746343 6.63408134 -10.66735273 4.48952921 -8 2 C-8 2.66 -8 3.32 -8 4 C-5.0280615 2.87548273 -2.66559313 1.77706209 0 0 Z " fill="#6C6C6C" transform="translate(335,194)"/>
<path d="M0 0 C2.28804937 1.65883579 3.56463437 2.62283307 5 5 C5.44207004 8.70298665 5.29251428 12.28831877 5 16 C4.34 16 3.68 16 3 16 C2.938125 16.5775 2.87625 17.155 2.8125 17.75 C1.67972699 20.88690987 -0.34197595 22.09167504 -3 24 C-1.9229468 21.76304336 -0.86141543 19.81344384 0.625 17.8125 C3.10333764 12.74317301 2.49484182 7.76287397 1 2.4375 C0.67 1.633125 0.34 0.82875 0 0 Z " fill="#848484" transform="translate(166,99)"/>
<path d="M0 0 C5.41904555 2.1934232 8.9245922 5.08297631 12 10 C13.27633212 13.27926529 14.21378091 16.57236062 15 20 C13.68 19.67 12.36 19.34 11 19 C10.95875 18.01 10.9175 17.02 10.875 16 C10.18699329 11.10418414 7.40689776 7.47072723 4 4 C1.90216812 2.7752104 1.90216812 2.7752104 0 2 C0 1.34 0 0.68 0 0 Z " fill="#888888" transform="translate(148,64)"/>
<path d="M0 0 C0.94328378 2.72504204 0.96998239 4.16342922 0.4375 7.0625 C-0.36309053 10.18251805 -0.36309053 10.18251805 2 13 C-2 13 -2 13 -4 12 C-5.88141079 9.09949171 -7.50094109 6.11343005 -9 3 C-6.525 4.98 -6.525 4.98 -4 7 C-1.90493748 3.55291141 -1.90493748 3.55291141 0 0 Z " fill="#626262" transform="translate(396,114)"/>
<path d="M0 0 C0.33 0.66 0.66 1.32 1 2 C-0.1746192 4.67255531 -1.40557786 7.22724989 -2.75 9.8125 C-3.1109375 10.52470703 -3.471875 11.23691406 -3.84375 11.97070312 C-5.76548665 15.73410405 -7.76967475 19.40748243 -10 23 C-10.33 22.34 -10.66 21.68 -11 21 C-9.8253808 18.32744469 -8.59442214 15.77275011 -7.25 13.1875 C-6.70859375 12.11918945 -6.70859375 12.11918945 -6.15625 11.02929688 C-4.23451335 7.26589595 -2.23032525 3.59251757 0 0 Z " fill="#8A8A8A" transform="translate(63,83)"/>
<path d="M0 0 C0 0.66 0 1.32 0 2 C-8.08961486 3.95829294 -15.65474478 5.51917486 -24 5 C-24 4.67 -24 4.34 -24 4 C-20.75128084 3.32698711 -17.50083621 2.6627049 -14.25 2 C-12.86941406 1.71382813 -12.86941406 1.71382813 -11.4609375 1.421875 C-10.57148437 1.24140625 -9.68203125 1.0609375 -8.765625 0.875 C-7.94868164 0.70742187 -7.13173828 0.53984375 -6.29003906 0.3671875 C-4 0 -4 0 0 0 Z " fill="#7F7F7F" transform="translate(44,84)"/>
<path d="M0 0 C-0.556875 0.268125 -1.11375 0.53625 -1.6875 0.8125 C-2.8321875 1.4003125 -2.8321875 1.4003125 -4 2 C-4.9075 2.350625 -5.815 2.70125 -6.75 3.0625 C-9.15838789 4.74584848 -9.15838789 4.74584848 -9.45703125 7.0546875 C-9.63741149 11.12994485 -9.56058993 13.28174416 -7 16.5625 C-6.34 17.036875 -5.68 17.51125 -5 18 C-7.96175123 17.38722388 -9.38058783 16.74627478 -12 15 C-12.97461023 10.53084136 -12.5393244 6.89267487 -10.1875 3 C-6.89807086 -0.00747807 -4.2899777 -0.11594534 0 0 Z " fill="#8F8F8F" transform="translate(197,91)"/>
<path d="M0 0 C0 0.33 0 0.66 0 1 C-0.61746094 1.03996094 -1.23492187 1.07992187 -1.87109375 1.12109375 C-9.96593614 2.11908802 -13.82495781 5.92495047 -19 12 C-18.01 12.66 -17.02 13.32 -16 14 C-17.98 14 -19.96 14 -22 14 C-21.50306916 9.82386964 -19.29989276 8.04206379 -16.25 5.3125 C-15.38890625 4.52488281 -14.5278125 3.73726563 -13.640625 2.92578125 C-9.26647985 -0.2642388 -5.28179401 -0.12283242 0 0 Z " fill="#A1A1A1" transform="translate(36,76)"/>
<path d="M0 0 C0.99 0.33 1.98 0.66 3 1 C1.0952092 3.01260914 -0.82230163 5.00953936 -2.75 7 C-3.55824219 7.85851563 -3.55824219 7.85851563 -4.3828125 8.734375 C-5.84648314 10.23374492 -7.41955166 11.62427295 -9 13 C-10.32 13 -11.64 13 -13 13 C-13 12.01 -13 11.02 -13 10 C-12.2575 9.71125 -11.515 9.4225 -10.75 9.125 C-8.43260203 8.17697356 -6.22082885 7.15154089 -4 6 C-4 5.34 -4 4.68 -4 4 C-3.34 4 -2.68 4 -2 4 C-1.34 2.68 -0.68 1.36 0 0 Z " fill="#4D4D4D" transform="translate(137,52)"/>
<path d="M0 0 C-0.61538462 6.52307692 -0.61538462 6.52307692 -2.5625 8.9375 C-3.036875 9.288125 -3.51125 9.63875 -4 10 C-4 9.01 -4 8.02 -4 7 C-5.32 8.32 -6.64 9.64 -8 11 C-8.66 10.67 -9.32 10.34 -10 10 C-8.87970983 8.51726301 -7.75361382 7.03891114 -6.625 5.5625 C-5.99851562 4.73878906 -5.37203125 3.91507813 -4.7265625 3.06640625 C-2.16446125 0 -2.16446125 0 0 0 Z " fill="#717171" transform="translate(112,15)"/>
<path d="M0 0 C3 2 3 2 3.6875 4.875 C4.25527353 10.22342662 4.07935899 15.63004139 4 21 C3.67 21 3.34 21 3 21 C2.49265716 18.6263603 1.99397614 16.25142575 1.5 13.875 C1.35691406 13.20984375 1.21382813 12.5446875 1.06640625 11.859375 C0.2387717 7.83943578 -0.15330658 4.10095101 0 0 Z " fill="#525252" transform="translate(397,81)"/>
<path d="M0 0 C0 3 0 3 -1 5 C1.31 4.34 3.62 3.68 6 3 C3.86099367 5.33285378 1.83344647 6.7868759 -1 8.1875 C-1.680625 8.53167969 -2.36125 8.87585938 -3.0625 9.23046875 C-5 10 -5 10 -8 10 C-6.34908222 5.70761377 -3.26245434 3.1206085 0 0 Z " fill="#969696" transform="translate(339,197)"/>
<path d="M0 0 C2.82069245 0.12467149 3.88218638 0.46673309 5.97265625 2.40625 C8.45367097 5.67363057 10.40806485 9.05808782 12.1875 12.75 C8.68049101 11.580997 8.28843472 10.7406039 6.3125 7.75 C4.01371807 4.5407258 4.01371807 4.5407258 0.625 2.625 C-2.21467642 2.77062443 -4.26522249 3.51275092 -6.8125 4.75 C-5.01999859 1.16499717 -4.0209941 0.79101523 0 0 Z " fill="#939393" transform="translate(115.8125,176.25)"/>
<path d="M0 0 C0.66 0.33 1.32 0.66 2 1 C1.49133903 5.26377576 0.25460377 7.33650972 -2.75 10.375 C-3.76320313 11.43847656 -3.76320313 11.43847656 -4.796875 12.5234375 C-7 14 -7 14 -9.765625 13.7265625 C-10.87164062 13.36691406 -10.87164062 13.36691406 -12 13 C-12.33 11.35 -12.66 9.7 -13 8 C-11.515 8.99 -11.515 8.99 -10 10 C-10 10.66 -10 11.32 -10 12 C-6.01757765 9.83811358 -2.9503138 7.45608188 0 4 C0 2.68 0 1.36 0 0 Z " fill="#858585" transform="translate(264,160)"/>
<path d="M0 0 C0.33 1.32 0.66 2.64 1 4 C0.01 4.33 -0.98 4.66 -2 5 C-2.515625 5.515625 -3.03125 6.03125 -3.5625 6.5625 C-4.036875 7.036875 -4.51125 7.51125 -5 8 C-5.66 8 -6.32 8 -7 8 C-7 7.34 -7 6.68 -7 6 C-7.66 6 -8.32 6 -9 6 C-9.33 6.66 -9.66 7.32 -10 8 C-10.66 7.34 -11.32 6.68 -12 6 C-8.04 4.02 -4.08 2.04 0 0 Z " fill="#757575" transform="translate(111,58)"/>
<path d="M0 0 C2.70364562 1.06507252 3.65674446 2.29693745 5.0625 4.8125 C4.7325 5.8025 4.4025 6.7925 4.0625 7.8125 C2 8.5 2 8.5 0.0625 8.8125 C0.3925 7.4925 0.7225 6.1725 1.0625 4.8125 C-1.88479537 3.65438612 -1.88479537 3.65438612 -4.9375 3.8125 C-4.6075 2.8225 -4.2775 1.8325 -3.9375 0.8125 C-1.9375 -0.1875 -1.9375 -0.1875 0 0 Z " fill="#444444" transform="translate(341.9375,172.1875)"/>
<path d="M0 0 C1.32 0 2.64 0 4 0 C3.71640113 1.4391134 3.42278601 2.87625518 3.125 4.3125 C2.96257812 5.11300781 2.80015625 5.91351563 2.6328125 6.73828125 C2 9 2 9 0 12 C0.33 9.03 0.66 6.06 1 3 C-0.98 4.98 -2.96 6.96 -5 9 C-5.66 8.67 -6.32 8.34 -7 8 C-6.21625 7.236875 -5.4325 6.47375 -4.625 5.6875 C-1.92742283 3.09108195 -1.92742283 3.09108195 0 0 Z " fill="#A4A4A4" transform="translate(66,126)"/>
<path d="M0 0 C5.26493886 -0.08774898 5.26493886 -0.08774898 8 1 C9.94401702 3.80376539 10.95178936 6.77245876 12 10 C12.33 10.66 12.66 11.32 13 12 C11.1875 11.375 11.1875 11.375 9 10 C8.319375 8.515 8.319375 8.515 7.625 7 C6.24656759 3.71650052 6.24656759 3.71650052 2.8125 2.625 C1.884375 2.41875 0.95625 2.2125 0 2 C0 1.34 0 0.68 0 0 Z " fill="#8D8D8D" transform="translate(78,174)"/>
<path d="M0 0 C0.33 0 0.66 0 1 0 C0.85816304 1.75032844 0.71136571 3.50025534 0.5625 5.25 C0.48128906 6.22453125 0.40007813 7.1990625 0.31640625 8.203125 C0.04925416 10.56461753 -0.35371968 12.71901065 -1 15 C-1.66 15 -2.32 15 -3 15 C-3.33 15.99 -3.66 16.98 -4 18 C-3.41632611 11.69632197 -1.95928381 6.01339937 0 0 Z " fill="#868686" transform="translate(10,146)"/>
<path d="M0 0 C0.33 0.66 0.66 1.32 1 2 C1.66 2 2.32 2 3 2 C6.76470588 12.28571429 6.76470588 12.28571429 6 16 C4 17.8125 4 17.8125 2 19 C2.350625 18.4225 2.70125 17.845 3.0625 17.25 C4.2142269 14.48585544 4.03150984 13.77714189 3 11 C2.484375 9.845 1.96875 8.69 1.4375 7.5 C0 4 0 4 0 0 Z " fill="#8D8D8D" transform="translate(173,149)"/>
<path d="M0 0 C1.65 0 3.3 0 5 0 C7.62404613 3.93606919 7.36302306 7.42590939 7 12 C6.01 12.99 5.02 13.98 4 15 C4 10.71 4 6.42 4 2 C2.68 1.34 1.36 0.68 0 0 Z " fill="#949494" transform="translate(197,92)"/>
<path d="M0 0 C0.66 1.32 1.32 2.64 2 4 C0.71186658 4.83878455 -0.58063256 5.67086783 -1.875 6.5 C-2.59429687 6.9640625 -3.31359375 7.428125 -4.0546875 7.90625 C-6 9 -6 9 -8 9 C-6.4169423 4.7257442 -3.49431596 2.73468206 0 0 Z " fill="#9E9E9E" transform="translate(314,210)"/>
<path d="M0 0 C2.31 0 4.62 0 7 0 C6.67 0.99 6.34 1.98 6 3 C9.465 2.505 9.465 2.505 13 2 C9.77208445 4.1519437 8.71599191 4.20086443 5 4 C5 4.66 5 5.32 5 6 C3.68 5.67 2.36 5.34 1 5 C1.33 4.01 1.66 3.02 2 2 C1.34 2 0.68 2 0 2 C0 1.34 0 0.68 0 0 Z " fill="#838383" transform="translate(263,194)"/>
<path d="M0 0 C4.23830976 2.82553984 3.97715348 5.12180888 5 10 C3.68 9.34 2.36 8.68 1 8 C1 6.35 1 4.7 1 3 C-1.31 3.33 -3.62 3.66 -6 4 C-4.03617993 2.49440461 -2.21736634 1.10868317 0 0 Z " fill="#7B7B7B" transform="translate(110,151)"/>
<path d="M0 0 C0.99 0.495 0.99 0.495 2 1 C2.49847072 2.9274201 2.98926363 4.85751887 3.421875 6.80078125 C3.98679566 8.94976999 4.74565652 10.80466096 5.6875 12.8125 C7 16 7 16 6 19 C2.69838189 12.82950014 0 7.14647064 0 0 Z " fill="#929292" transform="translate(257,141)"/>
<path d="M0 0 C0 0.33 0 0.66 0 1 C-2.64 1 -5.28 1 -8 1 C-8 1.66 -8 2.32 -8 3 C-11.63 3 -15.26 3 -19 3 C-18.67 2.34 -18.34 1.68 -18 1 C-11.99599056 -0.09163808 -6.08778799 -0.11227478 0 0 Z " fill="#5F5F5F" transform="translate(365,106)"/>
<path d="M0 0 C1.67542976 0.28604898 3.34385343 0.61781233 5 1 C5.84681133 6.08086796 6.09038099 10.84828377 6 16 C5.67 16 5.34 16 5 16 C4.81824219 15.00097656 4.63648438 14.00195312 4.44921875 12.97265625 C4.19785156 11.68230469 3.94648438 10.39195313 3.6875 9.0625 C3.44386719 7.77472656 3.20023437 6.48695312 2.94921875 5.16015625 C2.63597656 4.11730469 2.32273437 3.07445313 2 2 C1.01 1.67 0.02 1.34 -1 1 C-0.67 0.67 -0.34 0.34 0 0 Z " fill="#999999" transform="translate(269,69)"/>
<path d="M0 0 C1.32 0 2.64 0 4 0 C4.33 1.65 4.66 3.3 5 5 C3.34385343 5.38218767 1.67542976 5.71395102 0 6 C-0.33 5.67 -0.66 5.34 -1 5 C-2.68183948 4.76712992 -4.3712416 4.58735834 -6.0625 4.4375 C-6.98160156 4.35371094 -7.90070313 4.26992188 -8.84765625 4.18359375 C-9.91306641 4.09271484 -9.91306641 4.09271484 -11 4 C-11 3.67 -11 3.34 -11 3 C-9.22925083 2.97294271 -7.45838289 2.95357805 -5.6875 2.9375 C-4.70136719 2.92589844 -3.71523438 2.91429687 -2.69921875 2.90234375 C0 3 0 3 3 4 C2.01 2.68 1.02 1.36 0 0 Z " fill="#868686" transform="translate(358,56)"/>
<path d="M0 0 C4.95 0 9.9 0 15 0 C13.35 1.65 11.7 3.3 10 5 C9.01 5 8.02 5 7 5 C7.33 4.67 7.66 4.34 8 4 C6.10244856 1.65026182 6.10244856 1.65026182 2.875 1.875 C1.92625 1.91625 0.9775 1.9575 0 2 C0 1.34 0 0.68 0 0 Z " fill="#888888" transform="translate(354,185)"/>
<path d="M0 0 C3 3 3 3 3.29296875 5.69921875 C3.25816406 6.68535156 3.22335937 7.67148438 3.1875 8.6875 C3.16042969 9.68136719 3.13335937 10.67523438 3.10546875 11.69921875 C3.07066406 12.45847656 3.03585937 13.21773437 3 14 C2.34 14 1.68 14 1 14 C0.67 9.38 0.34 4.76 0 0 Z " fill="#787878" transform="translate(307,114)"/>
<path d="M0 0 C2.39285081 1.83430738 2.96004165 2.74405058 3.43359375 5.77734375 C3.43488281 6.82019531 3.43617188 7.86304687 3.4375 8.9375 C3.45683594 9.97777344 3.47617188 11.01804687 3.49609375 12.08984375 C2.89569116 15.61189042 1.71458985 16.76919844 -1 19 C-1.66 18.67 -2.32 18.34 -3 18 C-2.34 17.34 -1.68 16.68 -1 16 C2.09806373 11.3529044 1.38973237 7.33839421 0.5 2 C0.335 1.34 0.17 0.68 0 0 Z " fill="#919191" transform="translate(155,110)"/>
<path d="M0 0 C5.35048061 0.37328935 7.50912907 1.9957657 11 6 C9.35 5.67 7.7 5.34 6 5 C6 4.34 6 3.68 6 3 C4.35 2.67 2.7 2.34 1 2 C0.34 3.32 -0.32 4.64 -1 6 C-0.67 4.02 -0.34 2.04 0 0 Z " fill="#848484" transform="translate(342,80)"/>
<path d="M0 0 C0.33 0 0.66 0 1 0 C1.144375 1.134375 1.28875 2.26875 1.4375 3.4375 C1.61171478 6.80777201 1.61171478 6.80777201 3 8 C3.23427778 10.01594582 3.41336124 12.038474 3.5625 14.0625 C3.64628906 15.16722656 3.73007813 16.27195313 3.81640625 17.41015625 C3.87699219 18.26480469 3.93757812 19.11945313 4 20 C0.4664584 16.4664584 0.10947217 11.27154756 -0.125 6.40625 C-0.125 4.27042687 -0.06776977 2.13474769 0 0 Z " fill="#8C8C8C" transform="translate(5,166)"/>
<path d="M0 0 C0.495 0.185625 0.99 0.37125 1.5 0.5625 C3.99818036 0.99968156 5.69846621 0.85302275 8.1875 0.5 C9.445625 0.335 10.70375 0.17 12 0 C13 1 13 1 13.0625 3.5625 C13.041875 4.366875 13.02125 5.17125 13 6 C12.34 5.34 11.68 4.68 11 4 C8.56747339 3.53837573 8.56747339 3.53837573 5.875 3.375 C4.96492188 3.30023438 4.05484375 3.22546875 3.1171875 3.1484375 C2.41851562 3.09945312 1.71984375 3.05046875 1 3 C0.67 2.01 0.34 1.02 0 0 Z " fill="#707070" transform="translate(314,123)"/>
<path d="M0 0 C1 2 1 2 0.00390625 5.2578125 C-0.46889984 6.5497052 -0.94971969 7.83868638 -1.4375 9.125 C-1.68048828 9.78371094 -1.92347656 10.44242188 -2.17382812 11.12109375 C-2.77578321 12.74991338 -3.38702412 14.37529575 -4 16 C-5.43613407 11.69159779 -4.33882404 8.26269264 -3 4 C-1.375 1.4375 -1.375 1.4375 0 0 Z " fill="#959595" transform="translate(24,135)"/>
<path d="M0 0 C5.69162996 4.1938326 5.69162996 4.1938326 7 8 C7 9.32 7 10.64 7 12 C6.01 12 5.02 12 4 12 C2.66666667 8 1.33333333 4 0 0 Z " fill="#646464" transform="translate(353,86)"/>
<path d="M0 0 C0.33 0 0.66 0 1 0 C1.33 3.63 1.66 7.26 2 11 C0.68 11 -0.64 11 -2 11 C-2.33 9.68 -2.66 8.36 -3 7 C-2.01 7.33 -1.02 7.66 0 8 C-0.185625 7.05125 -0.37125 6.1025 -0.5625 5.125 C-1 2 -1 2 0 0 Z " fill="#868686" transform="translate(251,76)"/>
<path d="M0 0 C0 0.99 0 1.98 0 3 C-0.66 3.66 -1.32 4.32 -2 5 C-2.45811675 6.97235333 -2.45811675 6.97235333 -2.625 9.125 C-2.74875 10.40375 -2.8725 11.6825 -3 13 C-3.66 13 -4.32 13 -5 13 C-5 10.03 -5 7.06 -5 4 C-4.34 4 -3.68 4 -3 4 C-2.67 3.01 -2.34 2.02 -2 1 C-1.34 0.67 -0.68 0.34 0 0 Z " fill="#959595" transform="translate(218,71)"/>
<path d="M0 0 C0 3 0 3 -2 5.1875 C-2.66 5.785625 -3.32 6.38375 -4 7 C-3.34 7.66 -2.68 8.32 -2 9 C-3.98 9.66 -5.96 10.32 -8 11 C-7.43040847 7.37386801 -6.07625466 5.74482259 -3.4375 3.25 C-2.79683594 2.63640625 -2.15617188 2.0228125 -1.49609375 1.390625 C-1.00238281 0.93171875 -0.50867188 0.4728125 0 0 Z " fill="#979797" transform="translate(252,119)"/>
<path d="M0 0 C0.99 0.33 1.98 0.66 3 1 C0.14723863 3.93200474 -2.65079784 6.64315404 -6 9 C-6.66 8.67 -7.32 8.34 -8 8 C-5.36 5.36 -2.72 2.72 0 0 Z " fill="#969696" transform="translate(426,96)"/>
<path d="M0 0 C1.98 0 3.96 0 6 0 C4.66272409 2.67455183 3.26711677 2.98881385 0.5625 4.1875 C-0.24058594 4.55230469 -1.04367187 4.91710937 -1.87109375 5.29296875 C-4 6 -4 6 -6 5 C-5.34 4.01 -4.68 3.02 -4 2 C-2.68 2.33 -1.36 2.66 0 3 C0 2.01 0 1.02 0 0 Z " fill="#878787" transform="translate(324,187)"/>
<path d="M0 0 C0.66 0 1.32 0 2 0 C2.53154742 1.60064843 3.04988353 3.20568874 3.5625 4.8125 C3.85253906 5.70582031 4.14257812 6.59914062 4.44140625 7.51953125 C5 10 5 10 4 13 C0.88303339 8.66335081 0.44033187 5.19591612 0 0 Z " fill="#818181" transform="translate(158,151)"/>
<path d="M0 0 C0.97608217 2.92824652 1.08226668 4.95613276 1 8 C2.65 8.33 4.3 8.66 6 9 C6 9.33 6 9.66 6 10 C3.66705225 10.04241723 1.33297433 10.04092937 -1 10 C-2 9 -2 9 -2.0625 5.4375 C-2.041875 4.303125 -2.02125 3.16875 -2 2 C-1.34 2 -0.68 2 0 2 C0 1.34 0 0.68 0 0 Z " fill="#848484" transform="translate(18,151)"/>
<path d="M0 0 C0.66 0.33 1.32 0.66 2 1 C1.0409375 2.051875 1.0409375 2.051875 0.0625 3.125 C-2.16386102 6.22841233 -2.65080943 8.24620139 -3 12 C-3.66 12 -4.32 12 -5 12 C-5.3125 8.8125 -5.3125 8.8125 -5 5 C-2.5 2.0625 -2.5 2.0625 0 0 Z " fill="#7D7D7D" transform="translate(131,71)"/>
<path d="M0 0 C0.66 0 1.32 0 2 0 C2.33 0.99 2.66 1.98 3 3 C-1.625 7.875 -1.625 7.875 -5 9 C-3.50079488 5.88626628 -1.91847864 2.87771795 0 0 Z " fill="#424242" transform="translate(102,64)"/>
<path d="M0 0 C0.66 0.33 1.32 0.66 2 1 C-2.625 4 -2.625 4 -6 4 C-6.33 4.99 -6.66 5.98 -7 7 C-8.32 6.67 -9.64 6.34 -11 6 C-9.73168307 5.18357746 -8.46024069 4.37200895 -7.1875 3.5625 C-6.47980469 3.11003906 -5.77210938 2.65757812 -5.04296875 2.19140625 C-3 1 -3 1 0 0 Z " fill="#858585" transform="translate(293,154)"/>
<path d="M0 0 C1.98 0 3.96 0 6 0 C8 5.625 8 5.625 8 9 C7.236875 8.071875 6.47375 7.14375 5.6875 6.1875 C3.88151448 4.01723899 2.0523371 1.94431935 0 0 Z " fill="#7E7E7E" transform="translate(11,98)"/>
<path d="M0 0 C3.33227112 3.33227112 3.52072087 4.49477614 4 9 C4 9.66 4 10.32 4 11 C3.34 11 2.68 11 2 11 C1.34 7.37 0.68 3.74 0 0 Z " fill="#959595" transform="translate(244,72)"/>
<path d="M0 0 C1.485 0.99 1.485 0.99 3 2 C6.14221967 1.68493373 6.14221967 1.68493373 9 1 C9 1.99 9 2.98 9 4 C6.36 4.33 3.72 4.66 1 5 C0.67 3.35 0.34 1.7 0 0 Z " fill="#7B7B7B" transform="translate(90,64)"/>
<path d="M0 0 C0.66 0.33 1.32 0.66 2 1 C-0.25 3.5625 -0.25 3.5625 -3 6 C-4.32 5.67 -5.64 5.34 -7 5 C-4.69 3.35 -2.38 1.7 0 0 Z " fill="#767676" transform="translate(93,160)"/>
<path d="M0 0 C3.36591866 1.44253657 5.51047079 3.33264727 8 6 C3.25 4.125 3.25 4.125 1 3 C0.67 4.32 0.34 5.64 0 7 C0 4.69 0 2.38 0 0 Z " fill="#959595" transform="translate(141,98)"/>
<path d="M0 0 C2.125 0.9375 2.125 0.9375 4 2 C1.1875 3.5625 1.1875 3.5625 -2 5 C-2.99 4.67 -3.98 4.34 -5 4 C-4.01 3.67 -3.02 3.34 -2 3 C-2 2.34 -2 1.68 -2 1 C-1.34 0.67 -0.68 0.34 0 0 Z " fill="#6D6D6D" transform="translate(313,192)"/>
<path d="M0 0 C1.32 0.66 2.64 1.32 4 2 C3.34 3.32 2.68 4.64 2 6 C1.01 6 0.02 6 -1 6 C-0.67 4.02 -0.34 2.04 0 0 Z " fill="#2C2C2C" transform="translate(316,187)"/>
<path d="M0 0 C0 0.66 0 1.32 0 2 C-2.97 2.66 -5.94 3.32 -9 4 C-9 3.34 -9 2.68 -9 2 C-5.5647952 -0.29013653 -4.014669 -0.17842973 0 0 Z " fill="#757575" transform="translate(355,67)"/>
<path d="M0 0 C2.52259061 1.97420135 2.9929808 2.96745642 3.6875 6.1875 C3.790625 7.115625 3.89375 8.04375 4 9 C3.01 9.495 3.01 9.495 2 10 C0.68373308 6.38026598 0 3.90432869 0 0 Z " fill="#5E5E5E" transform="translate(215,84)"/>
<path d="M0 0 C0.33 0 0.66 0 1 0 C1 1.65 1 3.3 1 5 C1.66 5 2.32 5 3 5 C2.67 7.31 2.34 9.62 2 12 C1.67 12 1.34 12 1 12 C0.01751476 7.9472484 -0.08159574 4.16138263 0 0 Z " fill="#2A2A2A" transform="translate(88,86)"/>
</svg>
